<svg xmlns="http://www.w3.org/2000/svg" xmlns:xlink="http://www.w3.org/1999/xlink" width="242" height="143" viewBox="0 0 242 143"><defs><path id="g0fma" d="M1203.815 568.561V554.57h13.992v13.992z"/><path id="g0fmb" d="M1231.128 575.228v-14.657h14.658v14.657z"/><path id="g0fmc" d="M1220.152 589.322v-14.331h14.33v14.331z"/><path id="g0fmd" d="M1241.453 605.562v-11.33h11.329v11.33z"/><path id="g0fme" d="M1212.102 619.456v-11.499h11.499v11.499z"/><path id="g0fmf" d="M1240.121 624.572v-5.664h5.665v5.664z"/><path id="g0fmg" d="M1168.351 594.39c0 1.675-.225 3.364-.525 5.01-1.908 10.814-7.077 15.81-18.42 16.373-9.721.49-19.517.346-29.238-.173-9.736-.52-16.407-5.56-18.916-14.8-2.659-9.817-2.824-19.794-.015-29.583 2.96-10.31 10.352-15.377 22.026-15.492 14.138-.13 28.261-.03 42.4-.03.735 0 1.456.102 2.719.203 0 13.052.015 25.772-.03 38.492zm21.56-37.958h15.881v-20.95h-16.271v-41.986h-21.034v42.78h-5.184c-13.897 0-27.795-.057-41.693.015-20.914.101-36.118 11.002-40.971 29.54-3.546 13.543-3.53 27.158.12 40.687 4.357 16.156 16.963 27.1 34.286 28.429 13.191 1.01 26.503.938 39.74.65 9.315-.188 18.48-2.57 24.504-9.92 2.209-2.7 4.448-4.533 7.122-5.428h6.986v-10.482h-5.153c.42-4.086 1.037-7.855 1.097-11.623.015-.939.15-1.632.435-2.166h16.031v-25.844h-15.896v-13.702z"/><path id="g0fmh" d="M1252.672 582.917v-14.331h14.33v14.33z"/><path id="g0fmi" d="M1261.162 601.127v-11.329h11.329v11.33z"/><path id="g0fmj" d="M1261.309 616.689v-5.665h5.664v5.665z"/><path id="g0fmk" d="M1244.063 547.214v-5.665h5.665v5.665z"/><path id="g0fml" d="M1254.263 560.723v-11.329h11.33v11.33z"/><path id="g0fmm" d="M1276.157 566.241v-11.499h11.499v11.5z"/><path id="g0fmn" d="M1313.538 566.43v-5.664h5.664v5.664z"/><path id="g0fmo" d="M1281.364 587.33v-11.328h11.329v11.329z"/><path id="g0fmp" d="M1298.003 573.062v-9.896h9.896v9.896z"/></defs><g><g transform="translate(-1078 -493)"><g><use fill="#fff" xlink:href="#g0fma"/></g><g><use fill="#fff" xlink:href="#g0fmb"/></g><g><use fill="#fff" xlink:href="#g0fmc"/></g><g><use fill="#fff" xlink:href="#g0fmd"/></g><g><use fill="#fff" xlink:href="#g0fme"/></g><g><use fill="#fff" xlink:href="#g0fmf"/></g><g><use fill="#fff" xlink:href="#g0fmg"/></g><g><use fill="#fff" xlink:href="#g0fmh"/></g><g><use fill="#fff" xlink:href="#g0fmi"/></g><g><use fill="#fff" xlink:href="#g0fmj"/></g><g><use fill="#fff" xlink:href="#g0fmk"/></g><g><use fill="#fff" xlink:href="#g0fml"/></g><g><use fill="#fff" xlink:href="#g0fmm"/></g><g><use fill="#fff" xlink:href="#g0fmn"/></g><g><use fill="#fff" xlink:href="#g0fmo"/></g><g><use fill="#fff" xlink:href="#g0fmp"/></g></g></g></svg>