<svg xmlns="http://www.w3.org/2000/svg" xmlns:xlink="http://www.w3.org/1999/xlink" width="35" height="30" viewBox="0 0 35 30"><defs><path id="vdq7a" d="M813.669 1175.726a4.076 4.076 0 0 1-4.426-4.426 4.08 4.08 0 0 1 3.683-3.683 4.076 4.076 0 0 1 4.426 4.426 4.08 4.08 0 0 1-3.683 3.683zm-14.072 0a4.076 4.076 0 0 1-4.426-4.426 4.08 4.08 0 0 1 3.683-3.683 4.076 4.076 0 0 1 4.426 4.426 4.08 4.08 0 0 1-3.683 3.683zm21.308-14.852l-.113-.29a.037.037 0 0 0-.018-.019l-.284-.13c-2.333-1.058-5.624-1.32-8.535-1.435h-3.28c-.036 0-.048.05-.015.066l6.736 3.23c.038.017.017.074-.024.063a36.062 36.062 0 0 0-9.111-1.192c-3.012 0-6.062.399-9.082 1.184-.042.011-.063-.046-.024-.064l6.972-3.221c.033-.015.023-.066-.014-.066h-3.546c-2.91.117-6.201.378-8.534 1.437l-.284.129a.037.037 0 0 0-.018.019l-.114.29c-2.386 6.049-3.066 16.319-2.342 22.752l.038.338.268.208c3.73 2.891 8.717 4.379 11.854 4.773l.405.052a.287.287 0 0 0 .305-.184l2.042-5.456a.286.286 0 0 0-.224-.384l-.627-.098c-2.185-.343-5.28-1.254-7.897-3.626-.056-.05-.002-.142.069-.116.212.08.447.171.688.265.592.231 1.203.47 1.602.565a36.603 36.603 0 0 0 8.461 1.005v-.05h.006v.05c2.806 0 5.651-.337 8.456-1.005.4-.095 1.012-.334 1.603-.565.241-.094.476-.186.688-.265.07-.026.125.065.069.116-2.607 2.361-5.707 3.27-7.897 3.612l-.626.099a.286.286 0 0 0-.224.383l2.041 5.47c.047.124.173.2.305.184l.406-.052c3.137-.394 8.123-1.88 11.853-4.773l.268-.208.038-.338c.726-6.433.047-16.703-2.34-22.753z"/></defs><g><g transform="translate(-789 -1159)"><use fill="#fff" xlink:href="#vdq7a"/></g></g></svg>