<svg xmlns="http://www.w3.org/2000/svg" xmlns:xlink="http://www.w3.org/1999/xlink" width="32" height="30" viewBox="0 0 32 30"><defs><path id="2u8fa" d="M1027.4 1189h6.728v-20.242h-6.728zm3.409-30c-2.302 0-3.809 1.51-3.809 3.497 0 1.943 1.463 3.5 3.72 3.5h.045c2.347 0 3.807-1.557 3.807-3.5-.044-1.987-1.46-3.497-3.763-3.497zm27.587 18.393c0-6.218-3.32-9.11-7.75-9.11-3.574 0-5.17 1.967-6.065 3.344v.066h-.045l.045-.066v-2.87h-6.73c.09 1.901 0 20.243 0 20.243h6.73v-11.305c0-.606.047-1.208.224-1.641.487-1.21 1.594-2.461 3.453-2.461 2.435 0 3.408 1.857 3.408 4.577V1189h6.73z"/></defs><g><g transform="translate(-1027 -1159)"><use fill="#fff" xlink:href="#2u8fa"/></g></g></svg>