<svg xmlns="http://www.w3.org/2000/svg" xmlns:xlink="http://www.w3.org/1999/xlink" width="36" height="30" viewBox="0 0 36 30"><defs><path id="red9a" d="M930.673 1172.82c0-.316-.072-.63-.23-.922l-.004-.003-.002-.005a2.25 2.25 0 0 0-.941-.986c-.4-.225-.866-.34-1.335-.34a2.72 2.72 0 0 0-1.22.283c1.19 1.033 2.234 2.275 2.909 3.736.217-.189.402-.42.54-.676.181-.337.283-.716.283-1.088zm-2.364 5.161c0-1.297-.468-2.6-1.226-3.649-1.51-2.102-3.854-3.473-6.293-4.238l-.017-.006a19.573 19.573 0 0 0-5.762-.865c-1.96 0-3.92.29-5.796.868-2.438.774-4.789 2.135-6.296 4.245v.001c-.764 1.054-1.211 2.361-1.211 3.663 0 .48.06.958.187 1.424l.001.001c.275 1.047.811 1.981 1.506 2.795.694.815 1.546 1.511 2.442 2.079.198.123.398.24.602.355 2.602 1.453 5.6 2.089 8.574 2.089.503 0 1.01-.018 1.509-.054 2.996-.248 6.004-1.131 8.436-2.938l.001-.002a9.5 9.5 0 0 0 2.06-2.052c.568-.789.986-1.67 1.17-2.627v-.002l.002-.001c.074-.358.111-.722.111-1.086zm-25.256-7.118c-.388-.18-.789-.31-1.184-.308-.067 0-.134.004-.2.011h-.019a2.473 2.473 0 0 0-1.573.662c-.431.396-.717.93-.739 1.52v.012a1.622 1.622 0 0 0-.006.14c0 .364.111.715.3 1.036.14.238.324.455.532.644.664-1.455 1.703-2.69 2.889-3.717zm21.4-7.771c0 .04.001.08.005.12v.008c.019.504.257.972.618 1.319.363.346.845.56 1.334.562h.013c.035.003.071.003.106.003.494 0 .983-.212 1.351-.557.369-.346.612-.818.632-1.326v-.006c.004-.039.005-.075.005-.116 0-.523-.244-1.02-.627-1.39-.381-.369-.895-.597-1.401-.596-.164 0-.325.023-.484.071l-.006.001-.005.002a2.13 2.13 0 0 0-1.089.707c-.28.34-.452.761-.452 1.198zm8.54 9.488v.003a4.447 4.447 0 0 1-.742 2.664 4.884 4.884 0 0 1-1.732 1.605c.044.349.07.7.07 1.05-.001 1.881-.65 3.733-1.78 5.216h-.003c-2.09 2.781-5.299 4.42-8.54 5.247l-.003.001c-1.728.42-3.51.634-5.291.634-2.656 0-5.309-.479-7.785-1.471l-.001-.003h-.003c-2.567-1.058-5.013-2.74-6.513-5.204a8.483 8.483 0 0 1-1.25-4.408c0-.35.023-.702.07-1.05a5.022 5.022 0 0 1-1.695-1.563 4.605 4.605 0 0 1-.795-2.36v-.013c0-1.2.522-2.337 1.332-3.175.81-.838 1.916-1.385 3.103-1.385h.05c.124-.008.25-.013.375-.013.596 0 1.194.096 1.761.314l.004.002h.003c.484.205.966.451 1.394.792.14-.073.29-.155.46-.22 2.6-1.54 5.622-2.133 8.568-2.304.026-1.46.205-2.987.916-4.323.593-1.111 1.621-1.976 2.846-2.275l.005-.003h.007c.466-.09.936-.133 1.403-.133 1.245 0 2.474.295 3.625.755a4.501 4.501 0 0 1 2.09-1.706l.008-.005.009-.003a5.314 5.314 0 0 1 1.56-.246c.56 0 1.125.102 1.654.339v-.003l.002.002.01.003c.758.293 1.4.832 1.855 1.503a4.15 4.15 0 0 1 .723 2.31c0 .153-.008.306-.027.46l-.002.003v.008c-.09 1.072-.632 2.013-1.401 2.683-.774.674-1.776 1.08-2.803 1.08-.165 0-.332-.008-.498-.03-1.019-.078-1.97-.572-2.669-1.306-.7-.732-1.152-1.711-1.152-2.768 0-.051.005-.104.006-.154-.957-.426-1.974-.78-2.984-.78-.146 0-.292.009-.439.023h-.001c-.757.073-1.46.55-1.8 1.235v.004c-.518 1.007-.62 2.184-.637 3.353 2.9.189 5.816.884 8.373 2.355h.004l.037.021c.049.029.138.078.22.122.175-.142.361-.29.574-.416a4.718 4.718 0 0 1 2.613-.773c.407 0 .816.051 1.212.153h.001l.017.005.015.002v.001a4.848 4.848 0 0 1 2.42 1.5c.638.726 1.066 1.645 1.15 2.642v.002zm-24.286 5.65a2.158 2.158 0 0 1-1.133-.823 2.33 2.33 0 0 1-.436-1.345c0-.22.034-.444.106-.66v-.005a2.29 2.29 0 0 1 1.705-1.528H908.958c.156-.036.315-.055.472-.055.584 0 1.15.24 1.575.632.423.392.713.946.713 1.57 0 .031 0 .062-.003.09l.001.053c0 .628-.293 1.18-.721 1.57-.429.39-.995.628-1.578.628a2.033 2.033 0 0 1-.71-.128zm12.593 2.908c.182.12.338.287.431.49.065.136.104.286.104.445 0 .084-.01.167-.033.253a1.234 1.234 0 0 1-.264.493 1.779 1.779 0 0 1-.393.326c-.283.175-.583.294-.809.428l-.008.005-.01.006a13.148 13.148 0 0 1-5.546 1.248c-2.12.002-4.232-.547-6.025-1.756a1.014 1.014 0 0 1-.414-.413 1.199 1.199 0 0 1-.141-.569c0-.216.057-.433.171-.62.11-.18.28-.334.5-.418l.02-.008a1.016 1.016 0 0 1 .866.006c.138.057.263.134.383.21.235.157.451.322.64.4l.006.002.007.003c1.254.617 2.64.91 4.033.91 1.857 0 3.729-.52 5.319-1.469a.982.982 0 0 1 .54-.163c.226 0 .44.072.623.191zm1.439-5.799c.093.238.135.483.135.727 0 .49-.17.967-.454 1.356-.281.384-.68.682-1.148.814l-.01.003-.006.002a2.05 2.05 0 0 1-.668.11 2.37 2.37 0 0 1-1.449-.51 2.18 2.18 0 0 1-.813-1.327h-.001v-.006c0-.001 0-.003-.003-.005h.002a2.006 2.006 0 0 1-.046-.42c0-.474.16-.927.427-1.302a2.235 2.235 0 0 1 1.075-.821l.004-.001c.002 0 .002-.003.004-.003.247-.09.508-.137.767-.137.47 0 .933.143 1.324.404.385.257.698.632.856 1.1l.003.008c0 .003.002.005.004.006z"/></defs><g><g transform="translate(-897 -1159)"><use fill="#fff" xlink:href="#red9a"/></g></g></svg>