<svg xmlns="http://www.w3.org/2000/svg" xmlns:xlink="http://www.w3.org/1999/xlink" width="20" height="20" viewBox="0 0 20 20"><defs><path id="42h3a" d="M1526.433 167.579a5.139 5.139 0 0 1-5.146-5.146 5.139 5.139 0 0 1 5.146-5.146 5.139 5.139 0 0 1 5.146 5.146 5.139 5.139 0 0 1-5.146 5.146zm6.86 0h-.902l-.32-.31a7.4 7.4 0 0 0 1.795-4.836 7.433 7.433 0 1 0-7.433 7.433 7.4 7.4 0 0 0 4.837-1.796l.309.32v.904l5.717 5.706 1.704-1.704z"/></defs><g><g transform="translate(-1519 -155)"><use xlink:href="#42h3a"/></g></g></svg>