<svg id="SVGDoc" width="614" height="446" xmlns="http://www.w3.org/2000/svg" version="1.1" xmlns:xlink="http://www.w3.org/1999/xlink" xmlns:avocode="https://avocode.com/" viewBox="0 0 614 446"><defs><path d="M1583.61441,442.07311h-62.47098l-36.83279,-36.83279h-53.84613l-30.39366,30.39369h-159.32314l-18.66745,-18.66745h-49.38604v-1.94946h50.18354l18.66745,18.66747h157.72813l30.39366,-30.39369h55.44113l36.83279,36.8623h60.87598l54.70273,-54.67319h140.7739l39.66833,-39.66832h15.94995l27.38098,-27.38091h49.53369l61.64392,-61.6144l1.3587,1.35871l-62.1756,62.20514h-49.56323l-27.38092,27.38091h-15.95001l-39.66833,39.63879h-140.77383z" id="Path-0"/><path d="M1172.87144,419.62489c-2.00852,0 -3.63306,-1.62453 -3.63306,-3.63306c0,-2.00852 1.62454,-3.63306 3.63306,-3.63306c2.00852,0 3.60353,1.62454 3.60353,3.63306c0,2.00853 -1.62454,3.63306 -3.60353,3.63306z" id="Path-1"/><path d="M1975.60132,260.1836c1.41785,-1.41778 1.41785,-3.69214 0,-5.13946c-1.41779,-1.41778 -3.69214,-1.41778 -5.10992,0c-1.41788,1.41778 -1.41788,3.72168 0,5.13946c1.38828,1.41778 3.69223,1.41778 5.10992,0z" id="Path-2"/><path d="M1993.26456,696.74203l-41.82452,-41.82455h-29.50757l-51.45374,-51.45364h-24.87018l-34.7356,34.73563h-44.03986l-43.36047,-43.38998h-67.66953l-33.25879,33.25876h-74.4335l-38.36865,-38.39822h-72.04102l-8.24084,8.24084h-46.66866l-20.05568,-20.05567h-103.70479l-15.50699,15.50697h-77.18045v-1.94946h76.41249l15.47744,-15.47744h105.2998l20.05568,20.05572h45.07364l8.27039,-8.24085h73.57693l38.39822,38.39823h72.86804l33.22922,-33.25879h69.26453l43.36047,43.3605h42.44482l34.73566,-34.73569h26.46527l51.45361,51.48318h29.50757l42.38574,42.38574z" id="Path-3"/><path d="M1166.52094,596.02045c-2.00852,0 -3.63306,-1.62454 -3.63306,-3.63306c0,-2.00851 1.62454,-3.63307 3.63306,-3.63307c2.00852,0 3.63306,1.62456 3.63306,3.63307c-0.02954,2.00854 -1.65408,3.63306 -3.63306,3.63306z" id="Path-4"/><path d="M1991.25597,698.4847c1.41788,1.41772 3.72174,1.41772 5.13943,0c1.41788,-1.41779 1.41788,-3.72168 0,-5.10992c-1.41779,-1.41776 -3.72174,-1.41776 -5.13943,0c-1.41779,1.38824 -1.41779,3.69214 0,5.10992z" id="Path-5"/><path d="M2137.58282,624.87822l-34.02673,-34.02673h-141.57129l-40.64313,-40.64304h-56.97711l-31.25024,-31.25026h-44.98505l-23.33429,23.3343h-42.71063l-21.6507,-21.65071h-52.84186l-13.91199,13.91199h-60.37384l-36.56693,-36.5374h-82.64484l-32.96341,32.96342h-56.79985l-42.32668,-42.32668h-145.35209v-1.91993h146.14959l42.29715,42.32668h55.23439l32.96341,-32.99294h84.23978l36.53748,36.56693h58.80832l13.91199,-13.91197h54.43686l21.6507,21.65071h41.11566l23.33435,-23.33434h46.57996l31.25024,31.22072h56.94769l40.64294,40.67262h141.60089l34.58807,34.58794z" id="Path-6"/><path d="M1176.82939,491.31143c-2.00852,0 -3.63306,-1.62453 -3.63306,-3.63307c0,-2.00852 1.62454,-3.63307 3.63306,-3.63307c2.00852,0 3.63306,1.62455 3.63306,3.63307c0,2.00854 -1.62454,3.63307 -3.63306,3.63307z" id="Path-7"/><path d="M2135.57431,626.6209c1.41779,1.41779 3.72165,1.41779 5.13943,0c1.41779,-1.41774 1.41779,-3.72163 0,-5.10988c-1.41788,-1.41782 -3.72174,-1.41782 -5.13943,0c-1.41788,1.41774 -1.41788,3.69214 0,5.10988z" id="Path-8"/><path d="M1626.53186,506.43446h-47.37756l-32.07724,-32.07732h-107.07205l-28.79869,28.79869h-36.1534l-45.69391,-45.69392h-88.19779l-21.47347,-21.44394h-42.23806v-1.91992h43.03556l21.47348,21.44395h88.1978l45.69388,45.69389h34.55843l28.79869,-28.79866h108.66699l32.0773,32.07729h45.78253l25.66776,-25.66776h81.61099l23.71832,23.71831h96.26141l56.88843,-56.88846h113.15668l23.98407,-23.98413l1.35876,1.3587l-24.54529,24.54533h-113.15674l-56.88843,56.88847h-97.85645l-23.71826,-23.71828h-80.01599z" id="Path-9"/><path d="M1177.62689,438.67631c-2.00852,0 -3.63306,-1.62456 -3.63306,-3.63307c0,-2.00851 1.62454,-3.63305 3.63306,-3.63305c1.97899,0 3.60353,1.62454 3.60353,3.63305c0.02954,2.00851 -1.595,3.63307 -3.60353,3.63307z" id="Path-10"/><path d="M2050.15303,425.0597c1.41779,-1.41776 1.41779,-3.72166 0,-5.1099c-1.41785,-1.41779 -3.72171,-1.41779 -5.1395,0c-1.41779,1.41776 -1.41779,3.72166 0,5.1099c1.41779,1.41779 3.72165,1.41779 5.1395,0z" id="Path-11"/><path d="M1368.87968,515.59094l-38.13242,-38.13242h-92.42159l-25.10654,-25.13606h-33.55416v-1.91991h34.35165l25.10654,25.10654h92.42159l38.72316,38.72316z" id="Path-12"/><path d="M1179.84219,455.01033c-2.00852,0 -3.63306,-1.62456 -3.63306,-3.63307c0,-2.00851 1.62454,-3.63307 3.63306,-3.63307c2.00852,0 3.63307,1.62456 3.63307,3.63307c0,2.00854 -1.62454,3.63307 -3.63307,3.63307z" id="Path-13"/><path d="M1366.87112,517.33364c1.4178,1.41779 3.69214,1.41779 5.10994,0c1.41779,-1.4178 1.41779,-3.69214 0,-5.10995c-1.4178,-1.41778 -3.72168,-1.41778 -5.10994,0c-1.41776,1.41781 -1.41776,3.69216 0,5.10995z" id="Path-14"/><path d="M1618.91125,488.00329h-42.85834l-32.72707,-32.72711h-106.30409l-28.56236,28.56239h-23.74785l-27.23323,-27.20367l1.35872,-1.38824l26.64249,26.67199h22.18236l28.56239,-28.56237h107.89909l32.72704,32.69759h41.26334l31.72287,-31.69334h90.23587v1.91993h-89.43832z" id="Path-15"/><path d="M1355.70613,458.64342c-1.41782,-1.41779 -1.41782,-3.72168 0,-5.10992c1.41777,-1.4178 3.72168,-1.4178 5.10991,0c1.41779,1.41779 1.41779,3.72168 0,5.10992c-1.38823,1.41777 -3.69214,1.41777 -5.10991,0z" id="Path-16"/><path d="M1739.89526,458.93877c2.00851,0 3.63306,-1.62453 3.63306,-3.63307c0,-2.00852 -1.62454,-3.63307 -3.63306,-3.63307c-2.00848,0 -3.63306,1.62455 -3.63306,3.63307c-0.00003,2.00854 1.62451,3.63307 3.63306,3.63307z" id="Path-17"/><path d="M1414.8689,453.41533h-25.8154v-1.94943h25.01793l19.22865,-19.22866h54.64366v1.94946h-53.84616z" id="Path-18"/><path d="M1389.26025,456.07367c-2.00852,0 -3.63307,-1.62455 -3.63307,-3.63307c0,-2.00852 1.62455,-3.63307 3.63307,-3.63307c2.00854,0 3.63309,1.62455 3.63309,3.63307c-0.02955,2.00852 -1.6541,3.63307 -3.63309,3.63307z" id="Path-19"/><path d="M1487.76649,436.84502c2.00851,0 3.60353,-1.62455 3.60353,-3.63307c0,-2.00852 -1.62456,-3.63307 -3.60353,-3.63307c-2.00853,0 -3.63307,1.62455 -3.63307,3.63307c0.00002,2.00854 1.62454,3.63307 3.63307,3.63307z" id="Path-20"/><path d="M1595.99047,464.58037l-1.35873,-1.35872l52.33975,-52.33974h163.45831l45.93024,-45.93021h92.92365l37.42365,-37.39398h48.05682l35.26733,-35.2673h65.336v1.94945h-64.53845l-35.26733,35.23776h-48.05688l-37.39404,37.39397h-92.95322l-45.93021,45.93021h-163.45834z" id="Path-21"/><path d="M1597.99898,466.32305c-1.41779,1.41781 -3.72168,1.41781 -5.10992,0c-1.41776,-1.41779 -1.41776,-3.72168 0,-5.13944c1.41779,-1.41779 3.69214,-1.41779 5.10992,0c1.41779,1.4473 1.41779,3.72166 0,5.13944z" id="Path-22"/><path d="M2135.16077,296.86868c2.00851,0 3.63315,-1.62453 3.63315,-3.63306c0,-2.00853 -1.62457,-3.63306 -3.63315,-3.63306c-2.00848,0 -3.63306,1.62453 -3.63306,3.63306c0,2.03806 1.62448,3.63306 3.63306,3.63306z" id="Path-23"/><path d="M1617.37528,470.98991l-1.38823,-1.3587l46.4619,-46.46188h89.99957l26.99695,26.96736h52.33975l39.93414,-39.93414h104.47272v1.94944h-103.67523l-39.93423,39.90463h-53.96423l-26.96738,-26.96738h-88.40457z" id="Path-24"/><path d="M1619.35427,472.73261c-1.41779,1.41779 -3.72168,1.41779 -5.10992,0c-1.41774,-1.41779 -1.41774,-3.72169 0,-5.10992c1.41779,-1.41781 3.72169,-1.41781 5.10992,0c1.44733,1.41779 1.44733,3.69216 0,5.10992z" id="Path-25"/><path d="M1975.98532,414.81034c2.00851,0 3.63306,-1.62454 3.63306,-3.63306c0,-2.00853 -1.62445,-3.63306 -3.63306,-3.63306c-2.00848,0 -3.63312,1.62453 -3.63312,3.63306c0,2.00852 1.62463,3.63306 3.63312,3.63306z" id="Path-26"/><path d="M1818.70025,434.18669h-31.16168v-1.94945h30.36414l41.64734,-41.64732h122.87433l30.45276,-30.45277h43.27191l24.24994,-24.24996l1.3587,1.35871l-24.81116,24.81117h-43.27185l-30.45276,30.45274h-122.87436z" id="Path-27"/><path d="M1787.74535,436.84502c-2.00848,0 -3.63306,-1.62455 -3.63306,-3.63307c0,-2.00852 1.62457,-3.63307 3.63306,-3.63307c2.00851,0 3.60355,1.62455 3.60355,3.63307c0,2.00854 -1.62454,3.63307 -3.60355,3.63307z" id="Path-28"/><path d="M2083.50029,339.25442c1.41788,-1.41777 1.41788,-3.72167 0,-5.10991c-1.41779,-1.41778 -3.72165,-1.41778 -5.13943,0c-1.41779,1.41777 -1.41779,3.69214 0,5.10991c1.4473,1.41779 3.72174,1.41779 5.13943,0z" id="Path-29"/><path d="M1849.15295,488.12146h-78.80496l-21.35535,-21.35534h-60.25568v-1.91991h61.05319l21.38489,21.35532h77.18042l51.27643,-51.2764h90.94473v1.91991h-90.14725z" id="Path-30"/><path d="M1688.91417,469.42444c-2.0085,0 -3.63304,-1.62456 -3.63304,-3.63307c0,-2.00852 1.62454,-3.63307 3.63304,-3.63307c2.0085,0 3.63306,1.62455 3.63306,3.63307c0.00005,2.00854 -1.62451,3.63307 -3.63306,3.63307z" id="Path-31"/><path d="M1990.39944,439.50336c2.00851,0 3.63306,-1.62455 3.63306,-3.63307c0,-2.00854 -1.62445,-3.63307 -3.63306,-3.63307c-2.00848,0 -3.63312,1.62453 -3.63312,3.63307c0.02957,2.00854 1.65414,3.63307 3.63312,3.63307z" id="Path-32"/><path d="M1840.05556,471.5511h-63.82971l-27.76483,-27.76485h-76.29437v-1.91992h77.09189l27.76486,27.76488h62.23468l46.46185,-46.46187h113.77686l44.63062,-44.60103h38.87091v1.9199h-38.07343l-44.60101,44.60104h-113.77689z" id="Path-33"/><path d="M1672.34384,446.44456c-1.97894,0 -3.60352,-1.62455 -3.60352,-3.63307c0,-2.00852 1.62457,-3.63307 3.60352,-3.63307c2.00848,0 3.63306,1.62455 3.63306,3.63307c0.00003,2.00856 -1.62451,3.63307 -3.63306,3.63307z" id="Path-34"/><path d="M2082.82101,383.14657c2.00848,0 3.60355,-1.62454 3.60355,-3.63306c0,-2.00851 -1.62448,-3.63306 -3.60355,-3.63306c-2.00851,0 -3.63306,1.62455 -3.63306,3.63306c0,2.00852 1.62445,3.63306 3.63306,3.63306z" id="Path-35"/><path d="M1801.59825,399.98273h-150.78693v-1.91992h149.98944l58.21759,-58.21764h60.37387l38.72324,-38.72314h61.70294l40.67261,-40.70213l1.3587,1.35871l-41.23376,41.26334h-61.70312l-38.72302,38.72314h-60.34436z" id="Path-36"/><path d="M1650.98855,402.64106c-2.0085,0 -3.63306,-1.62454 -3.63306,-3.63307c0,-2.00852 1.62456,-3.63306 3.63306,-3.63306c2.0085,0 3.63304,1.62454 3.63304,3.63306c0,2.00853 -1.62454,3.63307 -3.63304,3.63307z" id="Path-37"/><path d="M2063.62193,263.78713c1.41779,-1.41778 1.41779,-3.72168 0,-5.13946c-1.41779,-1.41778 -3.69214,-1.41778 -5.10992,0c-1.41788,1.41778 -1.41788,3.69214 0,5.13946c1.38818,1.41778 3.69214,1.41778 5.10992,0z" id="Path-38"/><path d="M1234.33816,575.19681h-62.14607v-1.91992h61.31903l22.4482,-22.44818h100.57383v1.91991h-99.77632z" id="Path-39"/><path d="M1172.36929,577.85516c-2.00852,0 -3.63306,-1.62454 -3.63306,-3.63307c0,-2.00851 1.62454,-3.63307 3.63306,-3.63307c2.00852,0 3.60353,1.62456 3.60353,3.63307c0.02954,2.00853 -1.59501,3.63307 -3.60353,3.63307z" id="Path-40"/><path d="M1356.35593,555.40694c2.00852,0 3.63307,-1.62454 3.63307,-3.63307c0,-2.00853 -1.62455,-3.63307 -3.63307,-3.63307c-2.00854,0 -3.63309,1.62454 -3.63309,3.63307c0.02955,2.00854 1.62456,3.63307 3.63309,3.63307z" id="Path-41"/><path d="M2100.10025,616.84415h-182.83472l-34.20392,-34.20396h-38.75269l-26.672,26.67201h-39.19574l-36.38977,-36.38974h-89.08389l-40.46582,40.46587h-61.40768l-32.3136,-32.3136h-126.6255l-16.5408,-16.57033h-84.83057v-1.91992h85.62808l16.54076,16.57031h126.62558l32.3136,32.31363h59.81262l40.46582,-40.46584h90.67892l36.38974,36.38969h37.60071l26.672,-26.67201h40.34772l34.20392,34.20398h182.03723z" id="Path-42"/><path d="M1290.9608,567.16271c-2.00853,0 -3.63307,-1.62454 -3.63307,-3.63307c0,-2.00851 1.62454,-3.63307 3.63307,-3.63307c2.00852,0 3.63306,1.62456 3.63306,3.63307c0,2.00853 -1.62454,3.63307 -3.63306,3.63307z" id="Path-43"/><path d="M2099.92293,619.50249c2.00848,0 3.63312,-1.62456 3.63312,-3.6331c0,-2.0085 -1.62454,-3.63306 -3.63312,-3.63306c-2.00851,0 -3.63306,1.62456 -3.63306,3.63306c0.00006,2.00854 1.62454,3.6331 3.63306,3.6331z" id="Path-44"/><path d="M2094.754,606.24034h-138.02679l-44.8078,-44.83734h-58.86749l-19.14008,-19.14007h-36.38968l-16.21591,16.24541h-67.43323l-17.75177,-17.78133h-16.57031l-14.67993,14.70947h-92.15576l-36.8623,-36.8623h-64.36134l-26.70157,26.70152h-63.2094v-1.91988h62.4119l26.70154,-26.70155h65.95639l36.8623,36.86228h90.56073l14.67996,-14.70945h18.13574l17.78137,17.78132h65.83823l16.21588,-16.2454h38.01431l19.11041,19.14005h58.86749l44.8078,44.8078h137.22931z" id="Path-45"/><path d="M1381.75784,547.93406c-2.00852,0 -3.63307,-1.62454 -3.63307,-3.60353c0,-2.00851 1.62455,-3.63307 3.63307,-3.63307c2.00851,0 3.63307,1.62456 3.63307,3.63307c0,1.979 -1.62456,3.60353 -3.63307,3.60353z" id="Path-46"/><path d="M2094.57672,608.89865c2.00848,0 3.63312,-1.62455 3.63312,-3.63305c0,-2.00854 -1.62454,-3.6331 -3.63312,-3.6331c-2.00851,0 -3.63306,1.62456 -3.63306,3.6331c0.00009,2.00853 1.62454,3.63305 3.63306,3.63305z" id="Path-47"/><path d="M1344.7774,541.02238h-92.03762l-19.22865,-19.25819h-53.84615v-1.91989h54.67319l19.19911,19.22864h91.24012z" id="Path-48"/><path d="M1179.84219,524.45207c-2.00852,0 -3.63306,-1.62456 -3.63306,-3.63307c0,-2.00853 1.62454,-3.63307 3.63306,-3.63307c2.00852,0 3.63307,1.62454 3.63307,3.63307c0,2.00851 -1.62454,3.63307 -3.63307,3.63307z" id="Path-49"/><path d="M1344.62971,543.68073c1.97898,0 3.60353,-1.62456 3.60353,-3.63307c0,-2.00851 -1.62453,-3.63307 -3.60353,-3.63307c-2.00852,0 -3.63307,1.62456 -3.63307,3.63307c-0.02953,2.00851 1.62455,3.63307 3.63307,3.63307z" id="Path-50"/><path d="M1331.9583,520.16917h-66.93108l-19.76034,-19.76031h-74.13813v-1.91991h74.93564l19.78987,19.76032h66.10404z" id="Path-51"/><path d="M1171.30598,503.06721c-2.00852,0 -3.60353,-1.62456 -3.60353,-3.63307c0,-2.00852 1.62454,-3.63307 3.60353,-3.63307c2.00852,0 3.63306,1.62455 3.63306,3.63307c0,2.00851 -1.62454,3.63307 -3.63306,3.63307z" id="Path-52"/><path d="M1331.78106,522.82751c2.00852,0 3.63306,-1.62454 3.63306,-3.63307c0,-2.00851 -1.62454,-3.63306 -3.63306,-3.63306c-2.00852,0 -3.60352,1.62455 -3.60352,3.63306c0,2.00854 1.595,3.63307 3.60352,3.63307z" id="Path-53"/><path d="M1616.13475,583.46719h-34.08582l-45.13271,-45.13271h-55.29344l-18.66748,18.69701h-69.61894v-1.91992h68.79192l18.69699,-18.69699h56.88849l45.1622,45.13272h33.25879z" id="Path-54"/><path d="M1393.51361,559.68987c-1.97899,0 -3.60353,-1.62456 -3.60353,-3.6331c0,-2.00851 1.62454,-3.63307 3.60353,-3.63307c2.00853,0 3.63307,1.62456 3.63307,3.63307c-0.00003,2.00854 -1.62454,3.6331 -3.63307,3.6331z" id="Path-55"/><path d="M1615.95754,586.12552c2.00851,0 3.63306,-1.62454 3.63306,-3.60352c0,-2.00853 -1.62454,-3.63307 -3.63306,-3.63307c-2.00848,0 -3.63306,1.62454 -3.63306,3.63307c0.02951,1.97899 1.62457,3.60352 3.63306,3.60352z" id="Path-56"/><path d="M1563.58826,589.02016l-37.33487,-37.33487h-35.53316l-18.16533,18.1653h-67.46274v-1.91989h66.66525l18.16533,-18.16533h37.12811l37.8961,37.8961z" id="Path-57"/><path d="M1405.26936,572.50893c-2.00853,0 -3.63307,-1.62454 -3.63307,-3.63307c0,-2.00851 1.62454,-3.63307 3.63307,-3.63307c2.00851,0 3.60353,1.62456 3.60353,3.63307c0.02954,2.00854 -1.59502,3.63307 -3.60353,3.63307z" id="Path-58"/><path d="M1561.57971,590.79239c1.41779,1.41779 3.72168,1.41779 5.10992,0c1.41776,-1.41779 1.41776,-3.72168 0,-5.13943c-1.41779,-1.41779 -3.69214,-1.41779 -5.10992,0c-1.41776,1.41776 -1.41776,3.72165 0,5.13943z" id="Path-59"/><path d="M1862.00163,521.203l-1.35873,-1.3587l46.46188,-46.46188h125.53268l38.13242,-38.16194l1.3587,1.3587l-38.69357,38.72315h-125.53275z" id="Path-60"/><path d="M1864.01012,522.9457c-1.41772,1.41779 -3.72162,1.41779 -5.13947,0c-1.41779,-1.41779 -1.41779,-3.72168 0,-5.13945c1.41779,-1.41781 3.72165,-1.41781 5.13947,0c1.41785,1.44731 1.41785,3.72168 0,5.13945z" id="Path-61"/><path d="M2073.90076,438.61725c1.41779,-1.41779 1.41779,-3.72166 0,-5.13945c-1.41779,-1.41778 -3.72174,-1.41778 -5.13943,0c-1.41779,1.41781 -1.41779,3.72169 0,5.13945c1.41779,1.38824 3.72174,1.38824 5.13943,0z" id="Path-62"/><path d="M2169.06935,602.13467l-36.03522,-36.00574h-37.89618l-17.63361,-17.63364h-38.72314l-20.29193,20.292h-52.10349l-35.23776,-35.26731h-57.06573v-1.91994h57.86322l35.23767,35.26733h50.47903l20.32141,-20.32154h40.31827l17.63361,17.63364h37.92566l36.56689,36.59647z" id="Path-63"/><path d="M1874.25951,536.17834c-2.00848,0 -3.63306,-1.62456 -3.63306,-3.6331c0,-2.00851 1.62457,-3.63307 3.63306,-3.63307c2.00851,0 3.63306,1.62456 3.63306,3.63307c0.00009,2.00854 -1.62448,3.6331 -3.63306,3.6331z" id="Path-64"/><path d="M2167.06079,603.87734c1.41779,1.41779 3.72174,1.41779 5.13943,0c1.41779,-1.41779 1.41779,-3.72168 0,-5.10992c-1.41779,-1.41779 -3.72174,-1.41779 -5.13943,0c-1.41779,1.38824 -1.41779,3.69214 0,5.10992z" id="Path-65"/><path d="M2019.55252,522.59123h-31.51611l-25.90399,-25.93359h-46.75729l-21.32574,21.32579l-1.3587,-1.3587l21.88696,-21.88698h48.3522l25.90414,25.90402h29.92105l24.42719,-24.42717h35.38547l20.17383,-20.17384l1.38831,1.3587l-20.76465,20.73503h-35.38547z" id="Path-66"/><path d="M1896.05796,519.75567c-1.41779,1.41779 -3.72174,1.41779 -5.13953,0c-1.41779,-1.41779 -1.41779,-3.72169 0,-5.13945c1.41779,-1.41779 3.72165,-1.41779 5.13953,0c1.41769,1.41779 1.41769,3.72168 0,5.13945z" id="Path-67"/><path d="M2101.87238,479.40798c1.41779,-1.41779 1.41779,-3.72168 0,-5.13945c-1.41779,-1.41778 -3.72174,-1.41778 -5.1394,0c-1.41779,1.41779 -1.41779,3.72169 0,5.13945c1.41779,1.41779 3.72168,1.41779 5.1394,0z" id="Path-68"/><path d="M2064.41945,486.52644h-56.79993v-1.91991h56.00244l42.14941,-42.179l1.35864,1.38824z" id="Path-69"/><path d="M2007.79678,489.18478c-2.00851,0 -3.60358,-1.62455 -3.60358,-3.63309c0,-2.00852 1.62457,-3.63307 3.60358,-3.63307c2.00848,0 3.63312,1.62455 3.63312,3.63307c0,2.00856 -1.62454,3.63309 -3.63312,3.63309z" id="Path-70"/><path d="M2108.87265,445.82431c1.41788,-1.41781 1.41788,-3.72169 0,-5.13947c-1.41779,-1.41779 -3.69214,-1.41779 -5.10992,0c-1.41779,1.4178 -1.41779,3.72168 0,5.13947c1.41779,1.41779 3.69223,1.41779 5.10992,0z" id="Path-71"/><path d="M2037.71782,534.05165h-76.14664l-15.47745,-15.47745h-32.49078v-1.91992h33.28824l15.50696,15.47743h74.52219l18.40161,-18.43112h38.1915l55.64789,-55.64793l1.3587,1.38824l-56.17963,56.1796h-38.19138z" id="Path-72"/><path d="M1913.78018,521.23251c-2.00851,0 -3.60355,-1.62454 -3.60355,-3.63307c0,-2.00851 1.62454,-3.63307 3.60355,-3.63307c2.00851,0 3.63306,1.62456 3.63306,3.63307c0,2.00854 -1.62454,3.63307 -3.63306,3.63307z" id="Path-73"/><path d="M2152.26266,461.44943c1.41788,-1.4178 1.41788,-3.72168 0,-5.13944c-1.41779,-1.41781 -3.69214,-1.41781 -5.10992,0c-1.41779,1.41778 -1.41779,3.72166 0,5.13944c1.41779,1.41779 3.72174,1.41779 5.10992,0z" id="Path-74"/><path d="M2009.2736,553.2803h-44.48285l-17.60413,-17.60416l1.35867,-1.35869l17.043,17.04291h43.6853z" id="Path-75"/><path d="M1945.41435,537.68469c-1.41779,-1.4178 -1.41779,-3.72168 0,-5.10994c1.41779,-1.41779 3.72174,-1.41779 5.10992,0c1.41788,1.4178 1.41788,3.72168 0,5.10994c-1.38818,1.41779 -3.69214,1.41779 -5.10992,0z" id="Path-76"/><path d="M2009.09639,555.96817c2.00851,0 3.63306,-1.62456 3.63306,-3.63307c0,-2.00854 -1.62448,-3.63309 -3.63306,-3.63309c-2.00848,0 -3.63312,1.62454 -3.63312,3.63309c0.02957,2.00851 1.65411,3.63307 3.63312,3.63307z" id="Path-77"/><path d="M2135.36749,693.25661h-54.11194l-10.16071,-10.16077h-58.74933l-43.80353,-43.80347h-46.37329v-1.91995h47.17078l43.77405,43.8035h58.77881l10.16071,10.13126h53.31445z" id="Path-78"/><path d="M1922.34592,641.95067c-2.00848,0 -3.63306,-1.62456 -3.63306,-3.63306c0,-2.0085 1.62457,-3.63304 3.63306,-3.63304c2.00851,0 3.63315,1.62454 3.63315,3.63304c0,2.0085 -1.65405,3.63306 -3.63315,3.63306z" id="Path-79"/><path d="M2135.16077,695.91498c2.00851,0 3.63315,-1.62454 3.63315,-3.63304c0,-2.0085 -1.62457,-3.63306 -3.63315,-3.63306c-2.00848,0 -3.63306,1.62456 -3.63306,3.63306c0,2.0085 1.62448,3.63304 3.63306,3.63304z" id="Path-80"/><path d="M2168.47863,673.2305h-85.36224l-8.83157,-8.83157h-48.58862l-37.92563,-37.92569h-53.84607v-1.91991h54.64362l37.92566,37.92564h48.58853l8.83163,8.80203h84.5647z" id="Path-81"/><path d="M1934.10163,629.13159c-2.00848,0 -3.60345,-1.62456 -3.60345,-3.63306c0,-2.0085 1.62445,-3.63306 3.60345,-3.63306c1.97906,0 3.63312,1.62456 3.63312,3.63306c-0.02954,2.0085 -1.62463,3.63306 -3.63312,3.63306z" id="Path-82"/><path d="M2168.30148,675.88882c2.00851,0 3.63306,-1.62454 3.63306,-3.63304c0,-2.0085 -1.62448,-3.63306 -3.63306,-3.63306c-2.00848,0 -3.63315,1.62456 -3.63315,3.63306c0,2.0085 1.62457,3.63304 3.63315,3.63304z" id="Path-83"/><path d="M2113.24422,660.08649l-25.04749,-25.07703h-60.25568v-1.91992h61.05322l25.60864,25.63821z" id="Path-84"/><path d="M2028.11833,637.66782c-2.00858,0 -3.63315,-1.62454 -3.63315,-3.63304c0,-2.0085 1.62448,-3.63306 3.63315,-3.63306c2.00851,0 3.60345,1.62456 3.60345,3.63306c0,2.0085 -1.62445,3.63304 -3.60345,3.63304z" id="Path-85"/><path d="M2111.23567,661.82912c1.41788,1.41779 3.69214,1.41779 5.11002,0c1.41779,-1.41776 1.41779,-3.69214 0,-5.13947c-1.41788,-1.41776 -3.72174,-1.41776 -5.11002,0c-1.41779,1.44733 -1.41779,3.72171 0,5.13947z" id="Path-86"/></defs><desc>Generated with Avocode.</desc><g transform="matrix(1,0,0,1,-1560,-254)"><g clip-path="url(#clip-a477a7d3-6ea4-4f7c-b415-a95f0c6b8224)"><title>Path 654</title><use xlink:href="#Path-0" fill="#454545" fill-opacity="1"/></g><g clip-path="url(#clip-a477a7d3-6ea4-4f7c-b415-a95f0c6b8224)"><title>Path 655</title><use xlink:href="#Path-1" fill="#454545" fill-opacity="1"/></g><g clip-path="url(#clip-a477a7d3-6ea4-4f7c-b415-a95f0c6b8224)"><title>Path 656</title><use xlink:href="#Path-2" fill="#454545" fill-opacity="1"/></g><g clip-path="url(#clip-a477a7d3-6ea4-4f7c-b415-a95f0c6b8224)"><title>Path 657</title><use xlink:href="#Path-3" fill="#454545" fill-opacity="1"/></g><g clip-path="url(#clip-a477a7d3-6ea4-4f7c-b415-a95f0c6b8224)"><title>Path 658</title><use xlink:href="#Path-4" fill="#454545" fill-opacity="1"/></g><g clip-path="url(#clip-a477a7d3-6ea4-4f7c-b415-a95f0c6b8224)"><title>Path 659</title><use xlink:href="#Path-5" fill="#454545" fill-opacity="1"/></g><g clip-path="url(#clip-a477a7d3-6ea4-4f7c-b415-a95f0c6b8224)"><title>Path 660</title><use xlink:href="#Path-6" fill="#454545" fill-opacity="1"/></g><g clip-path="url(#clip-a477a7d3-6ea4-4f7c-b415-a95f0c6b8224)"><title>Path 661</title><use xlink:href="#Path-7" fill="#454545" fill-opacity="1"/></g><g clip-path="url(#clip-a477a7d3-6ea4-4f7c-b415-a95f0c6b8224)"><title>Path 662</title><use xlink:href="#Path-8" fill="#454545" fill-opacity="1"/></g><g clip-path="url(#clip-a477a7d3-6ea4-4f7c-b415-a95f0c6b8224)"><title>Path 663</title><use xlink:href="#Path-9" fill="#454545" fill-opacity="1"/></g><g clip-path="url(#clip-a477a7d3-6ea4-4f7c-b415-a95f0c6b8224)"><title>Path 664</title><use xlink:href="#Path-10" fill="#454545" fill-opacity="1"/></g><g clip-path="url(#clip-a477a7d3-6ea4-4f7c-b415-a95f0c6b8224)"><title>Path 665</title><use xlink:href="#Path-11" fill="#454545" fill-opacity="1"/></g><g clip-path="url(#clip-a477a7d3-6ea4-4f7c-b415-a95f0c6b8224)"><title>Path 666</title><use xlink:href="#Path-12" fill="#454545" fill-opacity="1"/></g><g clip-path="url(#clip-a477a7d3-6ea4-4f7c-b415-a95f0c6b8224)"><title>Path 667</title><use xlink:href="#Path-13" fill="#454545" fill-opacity="1"/></g><g clip-path="url(#clip-a477a7d3-6ea4-4f7c-b415-a95f0c6b8224)"><title>Path 668</title><use xlink:href="#Path-14" fill="#454545" fill-opacity="1"/></g><g clip-path="url(#clip-a477a7d3-6ea4-4f7c-b415-a95f0c6b8224)"><title>Path 669</title><use xlink:href="#Path-15" fill="#454545" fill-opacity="1"/></g><g clip-path="url(#clip-a477a7d3-6ea4-4f7c-b415-a95f0c6b8224)"><title>Path 670</title><use xlink:href="#Path-16" fill="#454545" fill-opacity="1"/></g><g clip-path="url(#clip-a477a7d3-6ea4-4f7c-b415-a95f0c6b8224)"><title>Path 671</title><use xlink:href="#Path-17" fill="#454545" fill-opacity="1"/></g><g clip-path="url(#clip-a477a7d3-6ea4-4f7c-b415-a95f0c6b8224)"><title>Path 672</title><use xlink:href="#Path-18" fill="#454545" fill-opacity="1"/></g><g clip-path="url(#clip-a477a7d3-6ea4-4f7c-b415-a95f0c6b8224)"><title>Path 673</title><use xlink:href="#Path-19" fill="#454545" fill-opacity="1"/></g><g clip-path="url(#clip-a477a7d3-6ea4-4f7c-b415-a95f0c6b8224)"><title>Path 674</title><use xlink:href="#Path-20" fill="#454545" fill-opacity="1"/></g><g clip-path="url(#clip-a477a7d3-6ea4-4f7c-b415-a95f0c6b8224)"><title>Path 675</title><use xlink:href="#Path-21" fill="#454545" fill-opacity="1"/></g><g clip-path="url(#clip-a477a7d3-6ea4-4f7c-b415-a95f0c6b8224)"><title>Path 676</title><use xlink:href="#Path-22" fill="#454545" fill-opacity="1"/></g><g clip-path="url(#clip-a477a7d3-6ea4-4f7c-b415-a95f0c6b8224)"><title>Path 677</title><use xlink:href="#Path-23" fill="#454545" fill-opacity="1"/></g><g clip-path="url(#clip-a477a7d3-6ea4-4f7c-b415-a95f0c6b8224)"><title>Path 678</title><use xlink:href="#Path-24" fill="#454545" fill-opacity="1"/></g><g clip-path="url(#clip-a477a7d3-6ea4-4f7c-b415-a95f0c6b8224)"><title>Path 679</title><use xlink:href="#Path-25" fill="#454545" fill-opacity="1"/></g><g clip-path="url(#clip-a477a7d3-6ea4-4f7c-b415-a95f0c6b8224)"><title>Path 680</title><use xlink:href="#Path-26" fill="#454545" fill-opacity="1"/></g><g clip-path="url(#clip-a477a7d3-6ea4-4f7c-b415-a95f0c6b8224)"><title>Path 681</title><use xlink:href="#Path-27" fill="#454545" fill-opacity="1"/></g><g clip-path="url(#clip-a477a7d3-6ea4-4f7c-b415-a95f0c6b8224)"><title>Path 682</title><use xlink:href="#Path-28" fill="#454545" fill-opacity="1"/></g><g clip-path="url(#clip-a477a7d3-6ea4-4f7c-b415-a95f0c6b8224)"><title>Path 683</title><use xlink:href="#Path-29" fill="#454545" fill-opacity="1"/></g><g clip-path="url(#clip-a477a7d3-6ea4-4f7c-b415-a95f0c6b8224)"><title>Path 684</title><use xlink:href="#Path-30" fill="#454545" fill-opacity="1"/></g><g clip-path="url(#clip-a477a7d3-6ea4-4f7c-b415-a95f0c6b8224)"><title>Path 685</title><use xlink:href="#Path-31" fill="#454545" fill-opacity="1"/></g><g clip-path="url(#clip-a477a7d3-6ea4-4f7c-b415-a95f0c6b8224)"><title>Path 686</title><use xlink:href="#Path-32" fill="#454545" fill-opacity="1"/></g><g clip-path="url(#clip-a477a7d3-6ea4-4f7c-b415-a95f0c6b8224)"><title>Path 687</title><use xlink:href="#Path-33" fill="#454545" fill-opacity="1"/></g><g clip-path="url(#clip-a477a7d3-6ea4-4f7c-b415-a95f0c6b8224)"><title>Path 688</title><use xlink:href="#Path-34" fill="#454545" fill-opacity="1"/></g><g clip-path="url(#clip-a477a7d3-6ea4-4f7c-b415-a95f0c6b8224)"><title>Path 689</title><use xlink:href="#Path-35" fill="#454545" fill-opacity="1"/></g><g clip-path="url(#clip-a477a7d3-6ea4-4f7c-b415-a95f0c6b8224)"><title>Path 690</title><use xlink:href="#Path-36" fill="#454545" fill-opacity="1"/></g><g clip-path="url(#clip-a477a7d3-6ea4-4f7c-b415-a95f0c6b8224)"><title>Path 691</title><use xlink:href="#Path-37" fill="#454545" fill-opacity="1"/></g><g clip-path="url(#clip-a477a7d3-6ea4-4f7c-b415-a95f0c6b8224)"><title>Path 692</title><use xlink:href="#Path-38" fill="#454545" fill-opacity="1"/></g><g clip-path="url(#clip-a477a7d3-6ea4-4f7c-b415-a95f0c6b8224)"><title>Path 693</title><use xlink:href="#Path-39" fill="#454545" fill-opacity="1"/></g><g clip-path="url(#clip-a477a7d3-6ea4-4f7c-b415-a95f0c6b8224)"><title>Path 694</title><use xlink:href="#Path-40" fill="#454545" fill-opacity="1"/></g><g clip-path="url(#clip-a477a7d3-6ea4-4f7c-b415-a95f0c6b8224)"><title>Path 695</title><use xlink:href="#Path-41" fill="#454545" fill-opacity="1"/></g><g clip-path="url(#clip-a477a7d3-6ea4-4f7c-b415-a95f0c6b8224)"><title>Path 696</title><use xlink:href="#Path-42" fill="#454545" fill-opacity="1"/></g><g clip-path="url(#clip-a477a7d3-6ea4-4f7c-b415-a95f0c6b8224)"><title>Path 697</title><use xlink:href="#Path-43" fill="#454545" fill-opacity="1"/></g><g clip-path="url(#clip-a477a7d3-6ea4-4f7c-b415-a95f0c6b8224)"><title>Path 698</title><use xlink:href="#Path-44" fill="#454545" fill-opacity="1"/></g><g clip-path="url(#clip-a477a7d3-6ea4-4f7c-b415-a95f0c6b8224)"><title>Path 699</title><use xlink:href="#Path-45" fill="#454545" fill-opacity="1"/></g><g clip-path="url(#clip-a477a7d3-6ea4-4f7c-b415-a95f0c6b8224)"><title>Path 700</title><use xlink:href="#Path-46" fill="#454545" fill-opacity="1"/></g><g clip-path="url(#clip-a477a7d3-6ea4-4f7c-b415-a95f0c6b8224)"><title>Path 701</title><use xlink:href="#Path-47" fill="#454545" fill-opacity="1"/></g><g clip-path="url(#clip-a477a7d3-6ea4-4f7c-b415-a95f0c6b8224)"><title>Path 702</title><use xlink:href="#Path-48" fill="#454545" fill-opacity="1"/></g><g clip-path="url(#clip-a477a7d3-6ea4-4f7c-b415-a95f0c6b8224)"><title>Path 703</title><use xlink:href="#Path-49" fill="#454545" fill-opacity="1"/></g><g clip-path="url(#clip-a477a7d3-6ea4-4f7c-b415-a95f0c6b8224)"><title>Path 704</title><use xlink:href="#Path-50" fill="#454545" fill-opacity="1"/></g><g clip-path="url(#clip-a477a7d3-6ea4-4f7c-b415-a95f0c6b8224)"><title>Path 705</title><use xlink:href="#Path-51" fill="#454545" fill-opacity="1"/></g><g clip-path="url(#clip-a477a7d3-6ea4-4f7c-b415-a95f0c6b8224)"><title>Path 706</title><use xlink:href="#Path-52" fill="#454545" fill-opacity="1"/></g><g clip-path="url(#clip-a477a7d3-6ea4-4f7c-b415-a95f0c6b8224)"><title>Path 707</title><use xlink:href="#Path-53" fill="#454545" fill-opacity="1"/></g><g clip-path="url(#clip-a477a7d3-6ea4-4f7c-b415-a95f0c6b8224)"><title>Path 708</title><use xlink:href="#Path-54" fill="#454545" fill-opacity="1"/></g><g clip-path="url(#clip-a477a7d3-6ea4-4f7c-b415-a95f0c6b8224)"><title>Path 709</title><use xlink:href="#Path-55" fill="#454545" fill-opacity="1"/></g><g clip-path="url(#clip-a477a7d3-6ea4-4f7c-b415-a95f0c6b8224)"><title>Path 710</title><use xlink:href="#Path-56" fill="#454545" fill-opacity="1"/></g><g clip-path="url(#clip-a477a7d3-6ea4-4f7c-b415-a95f0c6b8224)"><title>Path 711</title><use xlink:href="#Path-57" fill="#454545" fill-opacity="1"/></g><g clip-path="url(#clip-a477a7d3-6ea4-4f7c-b415-a95f0c6b8224)"><title>Path 712</title><use xlink:href="#Path-58" fill="#454545" fill-opacity="1"/></g><g clip-path="url(#clip-a477a7d3-6ea4-4f7c-b415-a95f0c6b8224)"><title>Path 713</title><use xlink:href="#Path-59" fill="#454545" fill-opacity="1"/></g><g clip-path="url(#clip-a477a7d3-6ea4-4f7c-b415-a95f0c6b8224)"><title>Path 714</title><use xlink:href="#Path-60" fill="#454545" fill-opacity="1"/></g><g clip-path="url(#clip-a477a7d3-6ea4-4f7c-b415-a95f0c6b8224)"><title>Path 715</title><use xlink:href="#Path-61" fill="#454545" fill-opacity="1"/></g><g clip-path="url(#clip-a477a7d3-6ea4-4f7c-b415-a95f0c6b8224)"><title>Path 716</title><use xlink:href="#Path-62" fill="#454545" fill-opacity="1"/></g><g clip-path="url(#clip-a477a7d3-6ea4-4f7c-b415-a95f0c6b8224)"><title>Path 717</title><use xlink:href="#Path-63" fill="#454545" fill-opacity="1"/></g><g clip-path="url(#clip-a477a7d3-6ea4-4f7c-b415-a95f0c6b8224)"><title>Path 718</title><use xlink:href="#Path-64" fill="#454545" fill-opacity="1"/></g><g clip-path="url(#clip-a477a7d3-6ea4-4f7c-b415-a95f0c6b8224)"><title>Path 719</title><use xlink:href="#Path-65" fill="#454545" fill-opacity="1"/></g><g clip-path="url(#clip-a477a7d3-6ea4-4f7c-b415-a95f0c6b8224)"><title>Path 720</title><use xlink:href="#Path-66" fill="#454545" fill-opacity="1"/></g><g clip-path="url(#clip-a477a7d3-6ea4-4f7c-b415-a95f0c6b8224)"><title>Path 721</title><use xlink:href="#Path-67" fill="#454545" fill-opacity="1"/></g><g clip-path="url(#clip-a477a7d3-6ea4-4f7c-b415-a95f0c6b8224)"><title>Path 722</title><use xlink:href="#Path-68" fill="#454545" fill-opacity="1"/></g><g clip-path="url(#clip-a477a7d3-6ea4-4f7c-b415-a95f0c6b8224)"><title>Path 723</title><use xlink:href="#Path-69" fill="#454545" fill-opacity="1"/></g><g clip-path="url(#clip-a477a7d3-6ea4-4f7c-b415-a95f0c6b8224)"><title>Path 724</title><use xlink:href="#Path-70" fill="#454545" fill-opacity="1"/></g><g clip-path="url(#clip-a477a7d3-6ea4-4f7c-b415-a95f0c6b8224)"><title>Path 725</title><use xlink:href="#Path-71" fill="#454545" fill-opacity="1"/></g><g clip-path="url(#clip-a477a7d3-6ea4-4f7c-b415-a95f0c6b8224)"><title>Path 726</title><use xlink:href="#Path-72" fill="#454545" fill-opacity="1"/></g><g clip-path="url(#clip-a477a7d3-6ea4-4f7c-b415-a95f0c6b8224)"><title>Path 727</title><use xlink:href="#Path-73" fill="#454545" fill-opacity="1"/></g><g clip-path="url(#clip-a477a7d3-6ea4-4f7c-b415-a95f0c6b8224)"><title>Path 728</title><use xlink:href="#Path-74" fill="#454545" fill-opacity="1"/></g><g clip-path="url(#clip-a477a7d3-6ea4-4f7c-b415-a95f0c6b8224)"><title>Path 729</title><use xlink:href="#Path-75" fill="#454545" fill-opacity="1"/></g><g clip-path="url(#clip-a477a7d3-6ea4-4f7c-b415-a95f0c6b8224)"><title>Path 730</title><use xlink:href="#Path-76" fill="#454545" fill-opacity="1"/></g><g clip-path="url(#clip-a477a7d3-6ea4-4f7c-b415-a95f0c6b8224)"><title>Path 731</title><use xlink:href="#Path-77" fill="#454545" fill-opacity="1"/></g><g clip-path="url(#clip-a477a7d3-6ea4-4f7c-b415-a95f0c6b8224)"><title>Path 732</title><use xlink:href="#Path-78" fill="#454545" fill-opacity="1"/></g><g clip-path="url(#clip-a477a7d3-6ea4-4f7c-b415-a95f0c6b8224)"><title>Path 733</title><use xlink:href="#Path-79" fill="#454545" fill-opacity="1"/></g><g clip-path="url(#clip-a477a7d3-6ea4-4f7c-b415-a95f0c6b8224)"><title>Path 734</title><use xlink:href="#Path-80" fill="#454545" fill-opacity="1"/></g><g clip-path="url(#clip-a477a7d3-6ea4-4f7c-b415-a95f0c6b8224)"><title>Path 735</title><use xlink:href="#Path-81" fill="#454545" fill-opacity="1"/></g><g clip-path="url(#clip-a477a7d3-6ea4-4f7c-b415-a95f0c6b8224)"><title>Path 736</title><use xlink:href="#Path-82" fill="#454545" fill-opacity="1"/></g><g clip-path="url(#clip-a477a7d3-6ea4-4f7c-b415-a95f0c6b8224)"><title>Path 737</title><use xlink:href="#Path-83" fill="#454545" fill-opacity="1"/></g><g clip-path="url(#clip-a477a7d3-6ea4-4f7c-b415-a95f0c6b8224)"><title>Path 738</title><use xlink:href="#Path-84" fill="#454545" fill-opacity="1"/></g><g clip-path="url(#clip-a477a7d3-6ea4-4f7c-b415-a95f0c6b8224)"><title>Path 739</title><use xlink:href="#Path-85" fill="#454545" fill-opacity="1"/></g><g clip-path="url(#clip-a477a7d3-6ea4-4f7c-b415-a95f0c6b8224)"><title>Path 740</title><use xlink:href="#Path-86" fill="#454545" fill-opacity="1"/></g></g></svg>