<svg id="SVGDoc" width="614" height="446" xmlns="http://www.w3.org/2000/svg" version="1.1" xmlns:xlink="http://www.w3.org/1999/xlink" xmlns:avocode="https://avocode.com/" viewBox="0 0 614 446"><defs><path d="M336.66489,620.37586h62.47098l36.83279,36.83279h53.84613l30.39366,-30.39369h159.32314l18.66745,18.66745h49.38604v1.94946h-50.18354l-18.66745,-18.66747h-157.72813l-30.39366,30.39369h-55.44113l-36.83279,-36.8623h-60.87598l-54.70273,54.67319h-140.7739l-39.66833,39.66832h-15.94995l-27.38098,27.38091h-49.53369l-61.64392,61.6144l-1.3587,-1.35871l62.1756,-62.20514h49.56323l27.38092,-27.38091h15.95001l39.66833,-39.63879h140.77383z" id="Path-0"/><path d="M747.40785,642.82409c2.00852,0 3.63306,1.62453 3.63306,3.63306c0,2.00852 -1.62454,3.63306 -3.63306,3.63306c-2.00852,0 -3.60353,-1.62454 -3.60353,-3.63306c0,-2.00853 1.62454,-3.63306 3.60353,-3.63306z" id="Path-1"/><path d="M-55.32202,802.26538c-1.41785,1.41778 -1.41785,3.69214 0,5.13946c1.41779,1.41778 3.69214,1.41778 5.10992,0c1.41788,-1.41778 1.41788,-3.72168 0,-5.13946c-1.38828,-1.41778 -3.69223,-1.41778 -5.10992,0z" id="Path-2"/><path d="M-72.98526,365.70694l41.82452,41.82455h29.50757l51.45374,51.45364h24.87018l34.7356,-34.73563h44.03986l43.36047,43.38998h67.66953l33.25879,-33.25876h74.4335l38.36865,38.39822h72.04102l8.24084,-8.24084h46.66866l20.05568,20.05567h103.70479l15.50699,-15.50697h77.18045v1.94946h-76.41249l-15.47744,15.47744h-105.2998l-20.05568,-20.05572h-45.07364l-8.27039,8.24085h-73.57693l-38.39822,-38.39823h-72.86804l-33.22922,33.25879h-69.26453l-43.36047,-43.3605h-42.44482l-34.73566,34.73569h-26.46527l-51.45361,-51.48318h-29.50757l-42.38574,-42.38574z" id="Path-3"/><path d="M753.75835,466.42853c2.00852,0 3.63306,1.62454 3.63306,3.63306c0,2.00851 -1.62454,3.63307 -3.63306,3.63307c-2.00852,0 -3.63306,-1.62456 -3.63306,-3.63307c0.02954,-2.00854 1.65408,-3.63306 3.63306,-3.63306z" id="Path-4"/><path d="M-70.97667,363.96428c-1.41788,-1.41772 -3.72174,-1.41772 -5.13943,0c-1.41788,1.41779 -1.41788,3.72168 0,5.10992c1.41779,1.41776 3.72174,1.41776 5.13943,0c1.41779,-1.38824 1.41779,-3.69214 0,-5.10992z" id="Path-5"/><path d="M-217.30353,437.57076l34.02673,34.02673h141.57129l40.64313,40.64304h56.97711l31.25024,31.25026h44.98505l23.33429,-23.3343h42.71063l21.6507,21.65071h52.84186l13.91199,-13.91199h60.37384l36.56693,36.5374h82.64484l32.96341,-32.96342h56.79985l42.32668,42.32668h145.35209v1.91993h-146.14959l-42.29715,-42.32668h-55.23439l-32.96341,32.99294h-84.23978l-36.53748,-36.56693h-58.80832l-13.91199,13.91197h-54.43686l-21.6507,-21.65071h-41.11566l-23.33435,23.33434h-46.57996l-31.25024,-31.22072h-56.94769l-40.64294,-40.67262h-141.60089l-34.58807,-34.58794z" id="Path-6"/><path d="M743.4499,571.13754c2.00852,0 3.63306,1.62453 3.63306,3.63307c0,2.00852 -1.62454,3.63307 -3.63306,3.63307c-2.00852,0 -3.63306,-1.62455 -3.63306,-3.63307c0,-2.00854 1.62454,-3.63307 3.63306,-3.63307z" id="Path-7"/><path d="M-215.29501,435.82808c-1.41779,-1.41779 -3.72165,-1.41779 -5.13943,0c-1.41779,1.41774 -1.41779,3.72163 0,5.10988c1.41788,1.41782 3.72174,1.41782 5.13943,0c1.41788,-1.41774 1.41788,-3.69214 0,-5.10988z" id="Path-8"/><path d="M293.74744,556.01451h47.37756l32.07724,32.07732h107.07205l28.79869,-28.79869h36.1534l45.69391,45.69392h88.19779l21.47347,21.44394h42.23806v1.91992h-43.03556l-21.47348,-21.44395h-88.1978l-45.69388,-45.69389h-34.55843l-28.79869,28.79866h-108.66699l-32.0773,-32.07729h-45.78253l-25.66776,25.66776h-81.61099l-23.71832,-23.71831h-96.26141l-56.88843,56.88846h-113.15668l-23.98407,23.98413l-1.35876,-1.3587l24.54529,-24.54533h113.15674l56.88843,-56.88847h97.85645l23.71826,23.71828h80.01599z" id="Path-9"/><path d="M742.65241,623.77267c2.00852,0 3.63306,1.62456 3.63306,3.63307c0,2.00851 -1.62454,3.63305 -3.63306,3.63305c-1.97899,0 -3.60353,-1.62454 -3.60353,-3.63305c-0.02954,-2.00851 1.595,-3.63307 3.60353,-3.63307z" id="Path-10"/><path d="M-129.87373,637.38927c-1.41779,1.41776 -1.41779,3.72166 0,5.1099c1.41785,1.41779 3.72171,1.41779 5.1395,0c1.41779,-1.41776 1.41779,-3.72166 0,-5.1099c-1.41779,-1.41779 -3.72165,-1.41779 -5.1395,0z" id="Path-11"/><path d="M551.39961,546.85803l38.13242,38.13242h92.42159l25.10654,25.13606h33.55416v1.91991h-34.35165l-25.10654,-25.10654h-92.42159l-38.72316,-38.72316z" id="Path-12"/><path d="M740.43711,607.43864c2.00852,0 3.63306,1.62456 3.63306,3.63307c0,2.00851 -1.62454,3.63307 -3.63306,3.63307c-2.00852,0 -3.63307,-1.62456 -3.63307,-3.63307c0,-2.00854 1.62454,-3.63307 3.63307,-3.63307z" id="Path-13"/><path d="M553.40818,545.11533c-1.4178,-1.41779 -3.69214,-1.41779 -5.10994,0c-1.41779,1.4178 -1.41779,3.69214 0,5.10995c1.4178,1.41778 3.72168,1.41778 5.10994,0c1.41776,-1.41781 1.41776,-3.69216 0,-5.10995z" id="Path-14"/><path d="M301.36804,574.44569h42.85834l32.72707,32.72711h106.30409l28.56236,-28.56239h23.74785l27.23323,27.20367l-1.35872,1.38824l-26.64249,-26.67199h-22.18236l-28.56239,28.56237h-107.89909l-32.72704,-32.69759h-41.26334l-31.72287,31.69334h-90.23587v-1.91993h89.43832z" id="Path-15"/><path d="M564.57317,603.80556c1.41782,1.41779 1.41782,3.72168 0,5.10992c-1.41777,1.4178 -3.72168,1.4178 -5.10991,0c-1.41779,-1.41779 -1.41779,-3.72168 0,-5.10992c1.38823,-1.41777 3.69214,-1.41777 5.10991,0z" id="Path-16"/><path d="M180.38404,603.5102c-2.00851,0 -3.63306,1.62453 -3.63306,3.63307c0,2.00852 1.62454,3.63307 3.63306,3.63307c2.00848,0 3.63306,-1.62455 3.63306,-3.63307c0.00003,-2.00854 -1.62451,-3.63307 -3.63306,-3.63307z" id="Path-17"/><path d="M505.4104,609.03365h25.8154v1.94943h-25.01793l-19.22865,19.22866h-54.64366v-1.94946h53.84616z" id="Path-18"/><path d="M531.01905,606.37531c2.00852,0 3.63307,1.62455 3.63307,3.63307c0,2.00852 -1.62455,3.63307 -3.63307,3.63307c-2.00854,0 -3.63309,-1.62455 -3.63309,-3.63307c0.02955,-2.00852 1.6541,-3.63307 3.63309,-3.63307z" id="Path-19"/><path d="M432.5128,625.60395c-2.00851,0 -3.60353,1.62455 -3.60353,3.63307c0,2.00852 1.62456,3.63307 3.60353,3.63307c2.00853,0 3.63307,-1.62455 3.63307,-3.63307c-0.00002,-2.00854 -1.62454,-3.63307 -3.63307,-3.63307z" id="Path-20"/><path d="M324.28883,597.8686l1.35873,1.35872l-52.33975,52.33974h-163.45831l-45.93024,45.93021h-92.92365l-37.42365,37.39398h-48.05682l-35.26733,35.2673h-65.336v-1.94945h64.53845l35.26733,-35.23776h48.05688l37.39404,-37.39397h92.95322l45.93021,-45.93021h163.45834z" id="Path-21"/><path d="M322.28032,596.12592c1.41779,-1.41781 3.72168,-1.41781 5.10992,0c1.41776,1.41779 1.41776,3.72168 0,5.13944c-1.41779,1.41779 -3.69214,1.41779 -5.10992,0c-1.41779,-1.4473 -1.41779,-3.72166 0,-5.13944z" id="Path-22"/><path d="M-214.88147,765.58029c-2.00851,0 -3.63315,1.62453 -3.63315,3.63306c0,2.00853 1.62457,3.63306 3.63315,3.63306c2.00848,0 3.63306,-1.62453 3.63306,-3.63306c0,-2.03806 -1.62448,-3.63306 -3.63306,-3.63306z" id="Path-23"/><path d="M302.90401,591.45906l1.38823,1.3587l-46.4619,46.46188h-89.99957l-26.99695,-26.96736h-52.33975l-39.93414,39.93414h-104.47272v-1.94944h103.67523l39.93423,-39.90463h53.96423l26.96738,26.96738h88.40457z" id="Path-24"/><path d="M300.92503,589.71636c1.41779,-1.41779 3.72168,-1.41779 5.10992,0c1.41774,1.41779 1.41774,3.72169 0,5.10992c-1.41779,1.41781 -3.72169,1.41781 -5.10992,0c-1.44733,-1.41779 -1.44733,-3.69216 0,-5.10992z" id="Path-25"/><path d="M-55.70602,647.63864c-2.00851,0 -3.63306,1.62454 -3.63306,3.63306c0,2.00853 1.62445,3.63306 3.63306,3.63306c2.00848,0 3.63312,-1.62453 3.63312,-3.63306c0,-2.00852 -1.62463,-3.63306 -3.63312,-3.63306z" id="Path-26"/><path d="M101.57905,628.26228h31.16168v1.94945h-30.36414l-41.64734,41.64732h-122.87433l-30.45276,30.45277h-43.27191l-24.24994,24.24996l-1.3587,-1.35871l24.81116,-24.81117h43.27185l30.45276,-30.45274h122.87436z" id="Path-27"/><path d="M132.53395,625.60395c2.00848,0 3.63306,1.62455 3.63306,3.63307c0,2.00852 -1.62457,3.63307 -3.63306,3.63307c-2.00851,0 -3.60355,-1.62455 -3.60355,-3.63307c0,-2.00854 1.62454,-3.63307 3.60355,-3.63307z" id="Path-28"/><path d="M-163.22099,723.19455c-1.41788,1.41777 -1.41788,3.72167 0,5.10991c1.41779,1.41778 3.72165,1.41778 5.13943,0c1.41779,-1.41777 1.41779,-3.69214 0,-5.10991c-1.4473,-1.41779 -3.72174,-1.41779 -5.13943,0z" id="Path-29"/><path d="M71.12635,574.32751h78.80496l21.35535,21.35534h60.25568v1.91991h-61.05319l-21.38489,-21.35532h-77.18042l-51.27643,51.2764h-90.94473v-1.91991h90.14725z" id="Path-30"/><path d="M231.36513,593.02454c2.0085,0 3.63304,1.62456 3.63304,3.63307c0,2.00852 -1.62454,3.63307 -3.63304,3.63307c-2.0085,0 -3.63306,-1.62455 -3.63306,-3.63307c-0.00005,-2.00854 1.62451,-3.63307 3.63306,-3.63307z" id="Path-31"/><path d="M-70.12015,622.94562c-2.00851,0 -3.63306,1.62455 -3.63306,3.63307c0,2.00854 1.62445,3.63307 3.63306,3.63307c2.00848,0 3.63312,-1.62453 3.63312,-3.63307c-0.02957,-2.00854 -1.65414,-3.63307 -3.63312,-3.63307z" id="Path-32"/><path d="M80.22374,590.89787h63.82971l27.76483,27.76485h76.29437v1.91992h-77.09189l-27.76486,-27.76488h-62.23468l-46.46185,46.46187h-113.77686l-44.63062,44.60103h-38.87091v-1.9199h38.07343l44.60101,-44.60104h113.77689z" id="Path-33"/><path d="M247.93546,616.00441c1.97894,0 3.60352,1.62455 3.60352,3.63307c0,2.00852 -1.62457,3.63307 -3.60352,3.63307c-2.00848,0 -3.63306,-1.62455 -3.63306,-3.63307c-0.00003,-2.00856 1.62451,-3.63307 3.63306,-3.63307z" id="Path-34"/><path d="M-162.54172,679.30241c-2.00848,0 -3.60355,1.62454 -3.60355,3.63306c0,2.00851 1.62448,3.63306 3.60355,3.63306c2.00851,0 3.63306,-1.62455 3.63306,-3.63306c0,-2.00852 -1.62445,-3.63306 -3.63306,-3.63306z" id="Path-35"/><path d="M118.68105,662.46624h150.78693v1.91992h-149.98944l-58.21759,58.21764h-60.37387l-38.72324,38.72314h-61.70294l-40.67261,40.70213l-1.3587,-1.35871l41.23376,-41.26334h61.70313l38.72302,-38.72314h60.34436z" id="Path-36"/><path d="M269.29075,659.80791c2.0085,0 3.63306,1.62454 3.63306,3.63307c0,2.00852 -1.62456,3.63306 -3.63306,3.63306c-2.0085,0 -3.63304,-1.62454 -3.63304,-3.63306c0,-2.00853 1.62454,-3.63307 3.63304,-3.63307z" id="Path-37"/><path d="M-143.34264,798.66185c-1.41779,1.41778 -1.41779,3.72168 0,5.13946c1.41779,1.41778 3.69214,1.41778 5.10992,0c1.41788,-1.41778 1.41788,-3.69214 0,-5.13946c-1.38818,-1.41778 -3.69214,-1.41778 -5.10992,0z" id="Path-38"/><path d="M685.94114,487.25217h62.14607v1.91992h-61.31903l-22.4482,22.44818h-100.57383v-1.91991h99.77632z" id="Path-39"/><path d="M747.91001,484.59381c2.00852,0 3.63306,1.62454 3.63306,3.63307c0,2.00851 -1.62454,3.63307 -3.63306,3.63307c-2.00852,0 -3.60353,-1.62456 -3.60353,-3.63307c-0.02954,-2.00853 1.59501,-3.63307 3.60353,-3.63307z" id="Path-40"/><path d="M563.92336,507.04203c-2.00852,0 -3.63307,1.62454 -3.63307,3.63307c0,2.00853 1.62455,3.63307 3.63307,3.63307c2.00854,0 3.63309,-1.62454 3.63309,-3.63307c-0.02955,-2.00854 -1.62456,-3.63307 -3.63309,-3.63307z" id="Path-41"/><path d="M-179.82095,445.60483h182.83472l34.20392,34.20396h38.75269l26.672,-26.67201h39.19574l36.38977,36.38974h89.08389l40.46582,-40.46587h61.40768l32.3136,32.3136h126.6255l16.5408,16.57033h84.83057v1.91992h-85.62808l-16.54076,-16.57031h-126.62558l-32.3136,-32.31363h-59.81262l-40.46582,40.46584h-90.67892l-36.38974,-36.38969h-37.60071l-26.672,26.67201h-40.34772l-34.20392,-34.20398h-182.03723z" id="Path-42"/><path d="M629.3185,495.28626c2.00853,0 3.63307,1.62454 3.63307,3.63307c0,2.00851 -1.62454,3.63307 -3.63307,3.63307c-2.00852,0 -3.63306,-1.62456 -3.63306,-3.63307c0,-2.00853 1.62454,-3.63307 3.63306,-3.63307z" id="Path-43"/><path d="M-179.64363,442.94649c-2.00848,0 -3.63312,1.62456 -3.63312,3.6331c0,2.0085 1.62454,3.63306 3.63312,3.63306c2.00851,0 3.63306,-1.62456 3.63306,-3.63306c-0.00006,-2.00854 -1.62454,-3.6331 -3.63306,-3.6331z" id="Path-44"/><path d="M-174.4747,456.20863h138.02679l44.8078,44.83734h58.86749l19.14008,19.14007h36.38968l16.21591,-16.24541h67.43323l17.75177,17.78133h16.57031l14.67993,-14.70947h92.15576l36.8623,36.8623h64.36134l26.70157,-26.70152h63.2094v1.91988h-62.4119l-26.70154,26.70155h-65.95639l-36.8623,-36.86228h-90.56073l-14.67996,14.70945h-18.13574l-17.78137,-17.78132h-65.83823l-16.21588,16.2454h-38.01431l-19.11041,-19.14005h-58.86749l-44.8078,-44.8078h-137.22931z" id="Path-45"/><path d="M538.52146,514.51492c2.00852,0 3.63307,1.62454 3.63307,3.60353c0,2.00851 -1.62455,3.63307 -3.63307,3.63307c-2.00851,0 -3.63307,-1.62456 -3.63307,-3.63307c0,-1.979 1.62456,-3.60353 3.63307,-3.60353z" id="Path-46"/><path d="M-174.29742,453.55032c-2.00848,0 -3.63312,1.62455 -3.63312,3.63305c0,2.00854 1.62454,3.6331 3.63312,3.6331c2.00851,0 3.63306,-1.62456 3.63306,-3.6331c-0.00009,-2.00853 -1.62454,-3.63305 -3.63306,-3.63305z" id="Path-47"/><path d="M575.50189,521.42659h92.03762l19.22865,19.25819h53.84615v1.91989h-54.67319l-19.19911,-19.22864h-91.24012z" id="Path-48"/><path d="M740.43711,537.9969c2.00852,0 3.63306,1.62456 3.63306,3.63307c0,2.00853 -1.62454,3.63307 -3.63306,3.63307c-2.00852,0 -3.63307,-1.62454 -3.63307,-3.63307c0,-2.00851 1.62454,-3.63307 3.63307,-3.63307z" id="Path-49"/><path d="M575.64959,518.76825c-1.97898,0 -3.60353,1.62456 -3.60353,3.63307c0,2.00851 1.62453,3.63307 3.60353,3.63307c2.00852,0 3.63307,-1.62456 3.63307,-3.63307c0.02953,-2.00851 -1.62455,-3.63307 -3.63307,-3.63307z" id="Path-50"/><path d="M588.321,542.27981h66.93108l19.76034,19.76031h74.13813v1.91991h-74.93564l-19.78987,-19.76032h-66.10404z" id="Path-51"/><path d="M748.97332,559.38176c2.00852,0 3.60353,1.62456 3.60353,3.63307c0,2.00852 -1.62454,3.63307 -3.60353,3.63307c-2.00852,0 -3.63306,-1.62455 -3.63306,-3.63307c0,-2.00851 1.62454,-3.63307 3.63306,-3.63307z" id="Path-52"/><path d="M588.49824,539.62146c-2.00852,0 -3.63306,1.62454 -3.63306,3.63307c0,2.00851 1.62454,3.63306 3.63306,3.63306c2.00852,0 3.60352,-1.62455 3.60352,-3.63306c0,-2.00854 -1.595,-3.63307 -3.60352,-3.63307z" id="Path-53"/><path d="M304.14455,478.98178h34.08582l45.13271,45.13271h55.29344l18.66748,-18.69701h69.61894v1.91992h-68.79192l-18.69699,18.69699h-56.88849l-45.1622,-45.13272h-33.25879z" id="Path-54"/><path d="M526.76569,502.75911c1.97899,0 3.60353,1.62456 3.60353,3.6331c0,2.00851 -1.62454,3.63307 -3.60353,3.63307c-2.00853,0 -3.63307,-1.62456 -3.63307,-3.63307c0.00003,-2.00854 1.62454,-3.6331 3.63307,-3.6331z" id="Path-55"/><path d="M304.32175,476.32346c-2.00851,0 -3.63306,1.62454 -3.63306,3.60352c0,2.00853 1.62454,3.63307 3.63306,3.63307c2.00848,0 3.63306,-1.62454 3.63306,-3.63307c-0.02951,-1.97899 -1.62457,-3.60352 -3.63306,-3.60352z" id="Path-56"/><path d="M356.69104,473.42882l37.33487,37.33487h35.53316l18.16533,-18.1653h67.46274v1.91989h-66.66525l-18.16533,18.16533h-37.12811l-37.8961,-37.8961z" id="Path-57"/><path d="M515.00993,489.94005c2.00853,0 3.63307,1.62454 3.63307,3.63307c0,2.00851 -1.62454,3.63307 -3.63307,3.63307c-2.00851,0 -3.60353,-1.62456 -3.60353,-3.63307c-0.02954,-2.00854 1.59502,-3.63307 3.60353,-3.63307z" id="Path-58"/><path d="M358.69958,471.65659c-1.41779,-1.41779 -3.72168,-1.41779 -5.10992,0c-1.41776,1.41779 -1.41776,3.72168 0,5.13943c1.41779,1.41779 3.69214,1.41779 5.10992,0c1.41776,-1.41776 1.41776,-3.72165 0,-5.13943z" id="Path-59"/><path d="M58.27766,541.24597l1.35873,1.3587l-46.46188,46.46188h-125.53268l-38.13242,38.16194l-1.3587,-1.3587l38.69357,-38.72315h125.53275z" id="Path-60"/><path d="M56.26917,539.50327c1.41772,-1.41779 3.72162,-1.41779 5.13947,0c1.41779,1.41779 1.41779,3.72168 0,5.13945c-1.41779,1.41781 -3.72165,1.41781 -5.13947,0c-1.41785,-1.44731 -1.41785,-3.72168 0,-5.13945z" id="Path-61"/><path d="M-153.62146,623.83173c-1.41779,1.41779 -1.41779,3.72166 0,5.13945c1.41779,1.41778 3.72174,1.41778 5.13943,0c1.41779,-1.41781 1.41779,-3.72169 0,-5.13945c-1.41779,-1.38824 -3.72174,-1.38824 -5.13943,0z" id="Path-62"/><path d="M-248.79005,460.3143l36.03522,36.00574h37.89618l17.63361,17.63364h38.72314l20.29193,-20.292h52.10349l35.23776,35.26731h57.06573v1.91994h-57.86322l-35.23767,-35.26733h-50.47903l-20.32141,20.32154h-40.31827l-17.63361,-17.63364h-37.92566l-36.56689,-36.59647z" id="Path-63"/><path d="M46.01978,526.27064c2.00848,0 3.63306,1.62456 3.63306,3.6331c0,2.00851 -1.62457,3.63307 -3.63306,3.63307c-2.00851,0 -3.63306,-1.62456 -3.63306,-3.63307c-0.00009,-2.00854 1.62448,-3.6331 3.63306,-3.6331z" id="Path-64"/><path d="M-246.78149,458.57163c-1.41779,-1.41779 -3.72174,-1.41779 -5.13943,0c-1.41779,1.41779 -1.41779,3.72168 0,5.10992c1.41779,1.41779 3.72174,1.41779 5.13943,0c1.41779,-1.38824 1.41779,-3.69214 0,-5.10992z" id="Path-65"/><path d="M-99.27322,539.85774h31.51611l25.90399,25.93359h46.75729l21.32574,-21.32579l1.3587,1.3587l-21.88696,21.88698h-48.3522l-25.90414,-25.90402h-29.92105l-24.42719,24.42717h-35.38547l-20.17383,20.17384l-1.38831,-1.3587l20.76465,-20.73503h35.38547z" id="Path-66"/><path d="M24.22134,542.69331c1.41779,-1.41779 3.72174,-1.41779 5.13953,0c1.41779,1.41779 1.41779,3.72169 0,5.13945c-1.41779,1.41779 -3.72165,1.41779 -5.13953,0c-1.41769,-1.41779 -1.41769,-3.72168 0,-5.13945z" id="Path-67"/><path d="M-181.59308,583.04099c-1.41779,1.41779 -1.41779,3.72168 0,5.13945c1.41779,1.41778 3.72174,1.41778 5.1394,0c1.41779,-1.41779 1.41779,-3.72169 0,-5.13945c-1.41779,-1.41779 -3.72168,-1.41779 -5.1394,0z" id="Path-68"/><path d="M-144.14015,575.92254h56.79993v1.91991h-56.00244l-42.14941,42.179l-1.35864,-1.38824z" id="Path-69"/><path d="M-87.51749,573.2642c2.00851,0 3.60358,1.62455 3.60358,3.63309c0,2.00852 -1.62457,3.63307 -3.60358,3.63307c-2.00848,0 -3.63312,-1.62455 -3.63312,-3.63307c0,-2.00856 1.62454,-3.63309 3.63312,-3.63309z" id="Path-70"/><path d="M-188.59335,616.62466c-1.41788,1.41781 -1.41788,3.72169 0,5.13947c1.41779,1.41779 3.69214,1.41779 5.10992,0c1.41779,-1.4178 1.41779,-3.72168 0,-5.13947c-1.41779,-1.41779 -3.69223,-1.41779 -5.10992,0z" id="Path-71"/><path d="M-117.43852,528.39732h76.14664l15.47745,15.47745h32.49078v1.91992h-33.28824l-15.50696,-15.47743h-74.52219l-18.40161,18.43112h-38.1915l-55.64789,55.64793l-1.3587,-1.38824l56.17963,-56.1796h38.19138z" id="Path-72"/><path d="M6.49911,541.21646c2.00851,0 3.60355,1.62454 3.60355,3.63307c0,2.00851 -1.62454,3.63307 -3.60355,3.63307c-2.00851,0 -3.63306,-1.62456 -3.63306,-3.63307c0,-2.00854 1.62454,-3.63307 3.63306,-3.63307z" id="Path-73"/><path d="M-231.98337,600.99954c-1.41788,1.4178 -1.41788,3.72168 0,5.13944c1.41779,1.41781 3.69214,1.41781 5.10992,0c1.41779,-1.41778 1.41779,-3.72166 0,-5.13944c-1.41779,-1.41779 -3.72174,-1.41779 -5.10992,0z" id="Path-74"/><path d="M-88.9943,509.16868h44.48285l17.60413,17.60416l-1.35867,1.35869l-17.043,-17.04291h-43.6853z" id="Path-75"/><path d="M-25.13506,524.76428c1.41779,1.4178 1.41779,3.72168 0,5.10994c-1.41779,1.41779 -3.72174,1.41779 -5.10992,0c-1.41788,-1.4178 -1.41788,-3.72168 0,-5.10994c1.38818,-1.41779 3.69214,-1.41779 5.10992,0z" id="Path-76"/><path d="M-88.81709,506.4808c-2.00851,0 -3.63306,1.62456 -3.63306,3.63307c0,2.00854 1.62448,3.63309 3.63306,3.63309c2.00848,0 3.63312,-1.62454 3.63312,-3.63309c-0.02957,-2.00851 -1.65411,-3.63307 -3.63312,-3.63307z" id="Path-77"/><path d="M-215.08819,369.19237h54.11194l10.16071,10.16077h58.74933l43.80353,43.80347h46.37329v1.91995h-47.17078l-43.77405,-43.8035h-58.77881l-10.16071,-10.13126h-53.31445z" id="Path-78"/><path d="M-2.06662,420.49831c2.00848,0 3.63306,1.62456 3.63306,3.63306c0,2.0085 -1.62457,3.63304 -3.63306,3.63304c-2.00851,0 -3.63315,-1.62454 -3.63315,-3.63304c0,-2.0085 1.65405,-3.63306 3.63315,-3.63306z" id="Path-79"/><path d="M-214.88147,366.534c-2.00851,0 -3.63315,1.62454 -3.63315,3.63304c0,2.0085 1.62457,3.63306 3.63315,3.63306c2.00848,0 3.63306,-1.62456 3.63306,-3.63306c0,-2.0085 -1.62448,-3.63304 -3.63306,-3.63304z" id="Path-80"/><path d="M-248.19933,389.21848h85.36224l8.83157,8.83157h48.58862l37.92563,37.92569h53.84607v1.91991h-54.64362l-37.92566,-37.92564h-48.58853l-8.83163,-8.80203h-84.5647z" id="Path-81"/><path d="M-13.82233,433.31738c2.00848,0 3.60345,1.62456 3.60345,3.63306c0,2.0085 -1.62445,3.63306 -3.60345,3.63306c-1.97906,0 -3.63312,-1.62456 -3.63312,-3.63306c0.02954,-2.0085 1.62463,-3.63306 3.63312,-3.63306z" id="Path-82"/><path d="M-248.02219,386.56015c-2.00851,0 -3.63306,1.62454 -3.63306,3.63304c0,2.0085 1.62448,3.63306 3.63306,3.63306c2.00848,0 3.63315,-1.62456 3.63315,-3.63306c0,-2.0085 -1.62457,-3.63304 -3.63315,-3.63304z" id="Path-83"/><path d="M-192.96492,402.36249l25.04749,25.07703h60.25568v1.91992h-61.05322l-25.60864,-25.63821z" id="Path-84"/><path d="M-107.83904,424.78116c2.00858,0 3.63315,1.62454 3.63315,3.63304c0,2.0085 -1.62448,3.63306 -3.63315,3.63306c-2.00851,0 -3.60345,-1.62456 -3.60345,-3.63306c0,-2.0085 1.62445,-3.63304 3.60345,-3.63304z" id="Path-85"/><path d="M-190.95638,400.61986c-1.41788,-1.41779 -3.69214,-1.41779 -5.11002,0c-1.41779,1.41776 -1.41779,3.69214 0,5.13947c1.41788,1.41776 3.72174,1.41776 5.11002,0c1.41779,-1.44733 1.41779,-3.72171 0,-5.13947z" id="Path-86"/></defs><desc>Generated with Avocode.</desc><g transform="matrix(1,0,0,1,253,-363)"><g clip-path="url(#clip-e083a07e-e3fe-40b4-9df3-7f2346282237)"><title>Path 654</title><use xlink:href="#Path-0" fill="#454545" fill-opacity="1"/></g><g clip-path="url(#clip-e083a07e-e3fe-40b4-9df3-7f2346282237)"><title>Path 655</title><use xlink:href="#Path-1" fill="#454545" fill-opacity="1"/></g><g clip-path="url(#clip-e083a07e-e3fe-40b4-9df3-7f2346282237)"><title>Path 656</title><use xlink:href="#Path-2" fill="#454545" fill-opacity="1"/></g><g clip-path="url(#clip-e083a07e-e3fe-40b4-9df3-7f2346282237)"><title>Path 657</title><use xlink:href="#Path-3" fill="#454545" fill-opacity="1"/></g><g clip-path="url(#clip-e083a07e-e3fe-40b4-9df3-7f2346282237)"><title>Path 658</title><use xlink:href="#Path-4" fill="#454545" fill-opacity="1"/></g><g clip-path="url(#clip-e083a07e-e3fe-40b4-9df3-7f2346282237)"><title>Path 659</title><use xlink:href="#Path-5" fill="#454545" fill-opacity="1"/></g><g clip-path="url(#clip-e083a07e-e3fe-40b4-9df3-7f2346282237)"><title>Path 660</title><use xlink:href="#Path-6" fill="#454545" fill-opacity="1"/></g><g clip-path="url(#clip-e083a07e-e3fe-40b4-9df3-7f2346282237)"><title>Path 661</title><use xlink:href="#Path-7" fill="#454545" fill-opacity="1"/></g><g clip-path="url(#clip-e083a07e-e3fe-40b4-9df3-7f2346282237)"><title>Path 662</title><use xlink:href="#Path-8" fill="#454545" fill-opacity="1"/></g><g clip-path="url(#clip-e083a07e-e3fe-40b4-9df3-7f2346282237)"><title>Path 663</title><use xlink:href="#Path-9" fill="#454545" fill-opacity="1"/></g><g clip-path="url(#clip-e083a07e-e3fe-40b4-9df3-7f2346282237)"><title>Path 664</title><use xlink:href="#Path-10" fill="#454545" fill-opacity="1"/></g><g clip-path="url(#clip-e083a07e-e3fe-40b4-9df3-7f2346282237)"><title>Path 665</title><use xlink:href="#Path-11" fill="#454545" fill-opacity="1"/></g><g clip-path="url(#clip-e083a07e-e3fe-40b4-9df3-7f2346282237)"><title>Path 666</title><use xlink:href="#Path-12" fill="#454545" fill-opacity="1"/></g><g clip-path="url(#clip-e083a07e-e3fe-40b4-9df3-7f2346282237)"><title>Path 667</title><use xlink:href="#Path-13" fill="#454545" fill-opacity="1"/></g><g clip-path="url(#clip-e083a07e-e3fe-40b4-9df3-7f2346282237)"><title>Path 668</title><use xlink:href="#Path-14" fill="#454545" fill-opacity="1"/></g><g clip-path="url(#clip-e083a07e-e3fe-40b4-9df3-7f2346282237)"><title>Path 669</title><use xlink:href="#Path-15" fill="#454545" fill-opacity="1"/></g><g clip-path="url(#clip-e083a07e-e3fe-40b4-9df3-7f2346282237)"><title>Path 670</title><use xlink:href="#Path-16" fill="#454545" fill-opacity="1"/></g><g clip-path="url(#clip-e083a07e-e3fe-40b4-9df3-7f2346282237)"><title>Path 671</title><use xlink:href="#Path-17" fill="#454545" fill-opacity="1"/></g><g clip-path="url(#clip-e083a07e-e3fe-40b4-9df3-7f2346282237)"><title>Path 672</title><use xlink:href="#Path-18" fill="#454545" fill-opacity="1"/></g><g clip-path="url(#clip-e083a07e-e3fe-40b4-9df3-7f2346282237)"><title>Path 673</title><use xlink:href="#Path-19" fill="#454545" fill-opacity="1"/></g><g clip-path="url(#clip-e083a07e-e3fe-40b4-9df3-7f2346282237)"><title>Path 674</title><use xlink:href="#Path-20" fill="#454545" fill-opacity="1"/></g><g clip-path="url(#clip-e083a07e-e3fe-40b4-9df3-7f2346282237)"><title>Path 675</title><use xlink:href="#Path-21" fill="#454545" fill-opacity="1"/></g><g clip-path="url(#clip-e083a07e-e3fe-40b4-9df3-7f2346282237)"><title>Path 676</title><use xlink:href="#Path-22" fill="#454545" fill-opacity="1"/></g><g clip-path="url(#clip-e083a07e-e3fe-40b4-9df3-7f2346282237)"><title>Path 677</title><use xlink:href="#Path-23" fill="#454545" fill-opacity="1"/></g><g clip-path="url(#clip-e083a07e-e3fe-40b4-9df3-7f2346282237)"><title>Path 678</title><use xlink:href="#Path-24" fill="#454545" fill-opacity="1"/></g><g clip-path="url(#clip-e083a07e-e3fe-40b4-9df3-7f2346282237)"><title>Path 679</title><use xlink:href="#Path-25" fill="#454545" fill-opacity="1"/></g><g clip-path="url(#clip-e083a07e-e3fe-40b4-9df3-7f2346282237)"><title>Path 680</title><use xlink:href="#Path-26" fill="#454545" fill-opacity="1"/></g><g clip-path="url(#clip-e083a07e-e3fe-40b4-9df3-7f2346282237)"><title>Path 681</title><use xlink:href="#Path-27" fill="#454545" fill-opacity="1"/></g><g clip-path="url(#clip-e083a07e-e3fe-40b4-9df3-7f2346282237)"><title>Path 682</title><use xlink:href="#Path-28" fill="#454545" fill-opacity="1"/></g><g clip-path="url(#clip-e083a07e-e3fe-40b4-9df3-7f2346282237)"><title>Path 683</title><use xlink:href="#Path-29" fill="#454545" fill-opacity="1"/></g><g clip-path="url(#clip-e083a07e-e3fe-40b4-9df3-7f2346282237)"><title>Path 684</title><use xlink:href="#Path-30" fill="#454545" fill-opacity="1"/></g><g clip-path="url(#clip-e083a07e-e3fe-40b4-9df3-7f2346282237)"><title>Path 685</title><use xlink:href="#Path-31" fill="#454545" fill-opacity="1"/></g><g clip-path="url(#clip-e083a07e-e3fe-40b4-9df3-7f2346282237)"><title>Path 686</title><use xlink:href="#Path-32" fill="#454545" fill-opacity="1"/></g><g clip-path="url(#clip-e083a07e-e3fe-40b4-9df3-7f2346282237)"><title>Path 687</title><use xlink:href="#Path-33" fill="#454545" fill-opacity="1"/></g><g clip-path="url(#clip-e083a07e-e3fe-40b4-9df3-7f2346282237)"><title>Path 688</title><use xlink:href="#Path-34" fill="#454545" fill-opacity="1"/></g><g clip-path="url(#clip-e083a07e-e3fe-40b4-9df3-7f2346282237)"><title>Path 689</title><use xlink:href="#Path-35" fill="#454545" fill-opacity="1"/></g><g clip-path="url(#clip-e083a07e-e3fe-40b4-9df3-7f2346282237)"><title>Path 690</title><use xlink:href="#Path-36" fill="#454545" fill-opacity="1"/></g><g clip-path="url(#clip-e083a07e-e3fe-40b4-9df3-7f2346282237)"><title>Path 691</title><use xlink:href="#Path-37" fill="#454545" fill-opacity="1"/></g><g clip-path="url(#clip-e083a07e-e3fe-40b4-9df3-7f2346282237)"><title>Path 692</title><use xlink:href="#Path-38" fill="#454545" fill-opacity="1"/></g><g clip-path="url(#clip-e083a07e-e3fe-40b4-9df3-7f2346282237)"><title>Path 693</title><use xlink:href="#Path-39" fill="#454545" fill-opacity="1"/></g><g clip-path="url(#clip-e083a07e-e3fe-40b4-9df3-7f2346282237)"><title>Path 694</title><use xlink:href="#Path-40" fill="#454545" fill-opacity="1"/></g><g clip-path="url(#clip-e083a07e-e3fe-40b4-9df3-7f2346282237)"><title>Path 695</title><use xlink:href="#Path-41" fill="#454545" fill-opacity="1"/></g><g clip-path="url(#clip-e083a07e-e3fe-40b4-9df3-7f2346282237)"><title>Path 696</title><use xlink:href="#Path-42" fill="#454545" fill-opacity="1"/></g><g clip-path="url(#clip-e083a07e-e3fe-40b4-9df3-7f2346282237)"><title>Path 697</title><use xlink:href="#Path-43" fill="#454545" fill-opacity="1"/></g><g clip-path="url(#clip-e083a07e-e3fe-40b4-9df3-7f2346282237)"><title>Path 698</title><use xlink:href="#Path-44" fill="#454545" fill-opacity="1"/></g><g clip-path="url(#clip-e083a07e-e3fe-40b4-9df3-7f2346282237)"><title>Path 699</title><use xlink:href="#Path-45" fill="#454545" fill-opacity="1"/></g><g clip-path="url(#clip-e083a07e-e3fe-40b4-9df3-7f2346282237)"><title>Path 700</title><use xlink:href="#Path-46" fill="#454545" fill-opacity="1"/></g><g clip-path="url(#clip-e083a07e-e3fe-40b4-9df3-7f2346282237)"><title>Path 701</title><use xlink:href="#Path-47" fill="#454545" fill-opacity="1"/></g><g clip-path="url(#clip-e083a07e-e3fe-40b4-9df3-7f2346282237)"><title>Path 702</title><use xlink:href="#Path-48" fill="#454545" fill-opacity="1"/></g><g clip-path="url(#clip-e083a07e-e3fe-40b4-9df3-7f2346282237)"><title>Path 703</title><use xlink:href="#Path-49" fill="#454545" fill-opacity="1"/></g><g clip-path="url(#clip-e083a07e-e3fe-40b4-9df3-7f2346282237)"><title>Path 704</title><use xlink:href="#Path-50" fill="#454545" fill-opacity="1"/></g><g clip-path="url(#clip-e083a07e-e3fe-40b4-9df3-7f2346282237)"><title>Path 705</title><use xlink:href="#Path-51" fill="#454545" fill-opacity="1"/></g><g clip-path="url(#clip-e083a07e-e3fe-40b4-9df3-7f2346282237)"><title>Path 706</title><use xlink:href="#Path-52" fill="#454545" fill-opacity="1"/></g><g clip-path="url(#clip-e083a07e-e3fe-40b4-9df3-7f2346282237)"><title>Path 707</title><use xlink:href="#Path-53" fill="#454545" fill-opacity="1"/></g><g clip-path="url(#clip-e083a07e-e3fe-40b4-9df3-7f2346282237)"><title>Path 708</title><use xlink:href="#Path-54" fill="#454545" fill-opacity="1"/></g><g clip-path="url(#clip-e083a07e-e3fe-40b4-9df3-7f2346282237)"><title>Path 709</title><use xlink:href="#Path-55" fill="#454545" fill-opacity="1"/></g><g clip-path="url(#clip-e083a07e-e3fe-40b4-9df3-7f2346282237)"><title>Path 710</title><use xlink:href="#Path-56" fill="#454545" fill-opacity="1"/></g><g clip-path="url(#clip-e083a07e-e3fe-40b4-9df3-7f2346282237)"><title>Path 711</title><use xlink:href="#Path-57" fill="#454545" fill-opacity="1"/></g><g clip-path="url(#clip-e083a07e-e3fe-40b4-9df3-7f2346282237)"><title>Path 712</title><use xlink:href="#Path-58" fill="#454545" fill-opacity="1"/></g><g clip-path="url(#clip-e083a07e-e3fe-40b4-9df3-7f2346282237)"><title>Path 713</title><use xlink:href="#Path-59" fill="#454545" fill-opacity="1"/></g><g clip-path="url(#clip-e083a07e-e3fe-40b4-9df3-7f2346282237)"><title>Path 714</title><use xlink:href="#Path-60" fill="#454545" fill-opacity="1"/></g><g clip-path="url(#clip-e083a07e-e3fe-40b4-9df3-7f2346282237)"><title>Path 715</title><use xlink:href="#Path-61" fill="#454545" fill-opacity="1"/></g><g clip-path="url(#clip-e083a07e-e3fe-40b4-9df3-7f2346282237)"><title>Path 716</title><use xlink:href="#Path-62" fill="#454545" fill-opacity="1"/></g><g clip-path="url(#clip-e083a07e-e3fe-40b4-9df3-7f2346282237)"><title>Path 717</title><use xlink:href="#Path-63" fill="#454545" fill-opacity="1"/></g><g clip-path="url(#clip-e083a07e-e3fe-40b4-9df3-7f2346282237)"><title>Path 718</title><use xlink:href="#Path-64" fill="#454545" fill-opacity="1"/></g><g clip-path="url(#clip-e083a07e-e3fe-40b4-9df3-7f2346282237)"><title>Path 719</title><use xlink:href="#Path-65" fill="#454545" fill-opacity="1"/></g><g clip-path="url(#clip-e083a07e-e3fe-40b4-9df3-7f2346282237)"><title>Path 720</title><use xlink:href="#Path-66" fill="#454545" fill-opacity="1"/></g><g clip-path="url(#clip-e083a07e-e3fe-40b4-9df3-7f2346282237)"><title>Path 721</title><use xlink:href="#Path-67" fill="#454545" fill-opacity="1"/></g><g clip-path="url(#clip-e083a07e-e3fe-40b4-9df3-7f2346282237)"><title>Path 722</title><use xlink:href="#Path-68" fill="#454545" fill-opacity="1"/></g><g clip-path="url(#clip-e083a07e-e3fe-40b4-9df3-7f2346282237)"><title>Path 723</title><use xlink:href="#Path-69" fill="#454545" fill-opacity="1"/></g><g clip-path="url(#clip-e083a07e-e3fe-40b4-9df3-7f2346282237)"><title>Path 724</title><use xlink:href="#Path-70" fill="#454545" fill-opacity="1"/></g><g clip-path="url(#clip-e083a07e-e3fe-40b4-9df3-7f2346282237)"><title>Path 725</title><use xlink:href="#Path-71" fill="#454545" fill-opacity="1"/></g><g clip-path="url(#clip-e083a07e-e3fe-40b4-9df3-7f2346282237)"><title>Path 726</title><use xlink:href="#Path-72" fill="#454545" fill-opacity="1"/></g><g clip-path="url(#clip-e083a07e-e3fe-40b4-9df3-7f2346282237)"><title>Path 727</title><use xlink:href="#Path-73" fill="#454545" fill-opacity="1"/></g><g clip-path="url(#clip-e083a07e-e3fe-40b4-9df3-7f2346282237)"><title>Path 728</title><use xlink:href="#Path-74" fill="#454545" fill-opacity="1"/></g><g clip-path="url(#clip-e083a07e-e3fe-40b4-9df3-7f2346282237)"><title>Path 729</title><use xlink:href="#Path-75" fill="#454545" fill-opacity="1"/></g><g clip-path="url(#clip-e083a07e-e3fe-40b4-9df3-7f2346282237)"><title>Path 730</title><use xlink:href="#Path-76" fill="#454545" fill-opacity="1"/></g><g clip-path="url(#clip-e083a07e-e3fe-40b4-9df3-7f2346282237)"><title>Path 731</title><use xlink:href="#Path-77" fill="#454545" fill-opacity="1"/></g><g clip-path="url(#clip-e083a07e-e3fe-40b4-9df3-7f2346282237)"><title>Path 732</title><use xlink:href="#Path-78" fill="#454545" fill-opacity="1"/></g><g clip-path="url(#clip-e083a07e-e3fe-40b4-9df3-7f2346282237)"><title>Path 733</title><use xlink:href="#Path-79" fill="#454545" fill-opacity="1"/></g><g clip-path="url(#clip-e083a07e-e3fe-40b4-9df3-7f2346282237)"><title>Path 734</title><use xlink:href="#Path-80" fill="#454545" fill-opacity="1"/></g><g clip-path="url(#clip-e083a07e-e3fe-40b4-9df3-7f2346282237)"><title>Path 735</title><use xlink:href="#Path-81" fill="#454545" fill-opacity="1"/></g><g clip-path="url(#clip-e083a07e-e3fe-40b4-9df3-7f2346282237)"><title>Path 736</title><use xlink:href="#Path-82" fill="#454545" fill-opacity="1"/></g><g clip-path="url(#clip-e083a07e-e3fe-40b4-9df3-7f2346282237)"><title>Path 737</title><use xlink:href="#Path-83" fill="#454545" fill-opacity="1"/></g><g clip-path="url(#clip-e083a07e-e3fe-40b4-9df3-7f2346282237)"><title>Path 738</title><use xlink:href="#Path-84" fill="#454545" fill-opacity="1"/></g><g clip-path="url(#clip-e083a07e-e3fe-40b4-9df3-7f2346282237)"><title>Path 739</title><use xlink:href="#Path-85" fill="#454545" fill-opacity="1"/></g><g clip-path="url(#clip-e083a07e-e3fe-40b4-9df3-7f2346282237)"><title>Path 740</title><use xlink:href="#Path-86" fill="#454545" fill-opacity="1"/></g></g></svg>