<svg xmlns="http://www.w3.org/2000/svg" xmlns:xlink="http://www.w3.org/1999/xlink" width="35" height="30" viewBox="0 0 35 30"><defs><path id="4kzsa" d="M974.125 1174.77l15.517-9.556c.279-.171.566.205.326.428l-12.806 11.903c-.45.42-.74.98-.822 1.589l-.437 3.233c-.057.432-.664.474-.783.056l-1.678-5.894a1.564 1.564 0 0 1 .683-1.758zm-10.517-1.386l7.94 2.963 3.074 9.883a.934.934 0 0 0 1.483.447l4.426-3.607a1.319 1.319 0 0 1 1.609-.045l7.982 5.795a.935.935 0 0 0 1.465-.566l5.847-28.126a.936.936 0 0 0-1.253-1.063l-32.582 12.569c-.804.31-.797 1.448.01 1.75z"/></defs><g><g transform="translate(-963 -1159)"><use fill="#fff" xlink:href="#4kzsa"/></g></g></svg>