<svg xmlns="http://www.w3.org/2000/svg" xmlns:xlink="http://www.w3.org/1999/xlink" width="44" height="30" viewBox="0 0 44 30"><defs><path id="sgdba" d="M1126.614 1172.337c2.446-.201 4.105-1.314 4.743-2.822-.881.541-3.62 1.133-5.133.57a18.773 18.773 0 0 0-.238-.998c-1.152-4.232-5.099-7.64-9.233-7.229.335-.134.674-.261 1.013-.373.454-.163 3.125-.598 2.704-1.54-.354-.83-3.616.626-4.23.817.81-.305 2.15-.83 2.294-1.762-1.242.17-2.462.757-3.404 1.612.34-.367.599-.813.653-1.293-3.313 2.117-5.248 6.385-6.815 10.524-1.23-1.192-2.32-2.13-3.297-2.652-2.744-1.471-6.024-3.006-11.174-4.918-.158 1.704.842 3.97 3.726 5.476-.625-.084-1.767.103-2.681.322.373 1.952 1.588 3.56 4.877 4.337-1.503.1-2.28.442-2.985 1.179.685 1.358 2.356 2.955 5.361 2.627-3.342 1.44-1.362 4.108 1.357 3.71-4.64 4.791-11.952 4.439-16.152.431 10.965 14.941 34.8 8.836 38.353-5.555 2.662.022 4.226-.922 5.196-1.963-1.534.26-3.757-.009-4.935-.5z"/></defs><g><g transform="translate(-1088 -1159)"><use fill="#fff" xlink:href="#sgdba"/></g></g></svg>